<svg id="svg" version="1.1" xmlns="http://www.w3.org/2000/svg" xmlns:xlink="http://www.w3.org/1999/xlink" width="400" height="229.01785714285717" viewBox="0, 0, 400,229.01785714285717"><g id="svgg"><path id="path0" d="M101.386 117.046 C 101.506 117.161,102.119 117.529,102.749 117.864 C 103.612 118.323,103.753 118.357,103.322 118.005 C 103.007 117.747,102.633 117.534,102.491 117.531 C 102.349 117.528,102.104 117.371,101.947 117.182 C 101.790 116.993,101.551 116.838,101.415 116.838 C 101.260 116.838,101.249 116.916,101.386 117.046 M0.000 198.740 L 0.000 227.950 8.820 227.950 L 17.640 227.950 17.640 198.740 L 17.640 169.530 8.820 169.530 L 0.000 169.530 0.000 198.740 M29.888 169.817 C 29.828 169.974,29.806 183.093,29.838 198.969 L 29.897 227.835 38.889 227.895 L 47.881 227.955 47.881 210.525 C 47.881 195.031,47.919 193.133,48.225 193.438 C 48.414 193.627,48.568 193.866,48.569 193.970 C 48.570 194.286,51.233 197.257,54.696 200.806 C 55.736 201.871,56.586 202.794,56.586 202.858 C 56.586 203.039,57.278 203.868,58.683 205.372 C 59.395 206.135,60.272 207.100,60.630 207.517 C 60.989 207.935,62.006 209.017,62.889 209.923 C 63.772 210.828,64.742 211.930,65.045 212.371 C 65.348 212.812,66.404 213.983,67.391 214.972 C 68.379 215.961,69.187 216.852,69.187 216.951 C 69.187 217.050,70.063 218.022,71.134 219.110 C 72.205 220.198,73.081 221.136,73.081 221.194 C 73.081 221.384,73.848 222.260,75.544 224.010 C 76.458 224.953,77.205 225.787,77.205 225.863 C 77.205 225.940,77.606 226.441,78.095 226.976 L 78.985 227.950 88.290 227.950 L 97.595 227.950 97.595 198.740 L 97.595 169.530 88.431 169.530 L 79.267 169.530 79.267 186.712 C 79.267 196.163,79.211 203.895,79.142 203.895 C 78.981 203.895,77.892 202.809,77.892 202.648 C 77.892 202.320,74.800 199.084,74.488 199.084 C 74.385 199.084,74.186 198.833,74.046 198.526 C 73.733 197.839,73.133 197.121,71.363 195.319 C 70.607 194.549,69.694 193.527,69.334 193.048 C 68.650 192.138,67.641 191.121,66.460 190.149 C 66.077 189.834,65.760 189.473,65.754 189.347 C 65.742 189.052,64.597 187.672,63.001 186.027 C 62.308 185.313,61.483 184.386,61.168 183.968 C 60.853 183.550,60.254 182.888,59.836 182.497 C 58.111 180.885,57.274 180.001,57.274 179.796 C 57.274 179.676,57.145 179.441,56.987 179.274 C 56.830 179.106,55.876 178.062,54.868 176.953 C 53.860 175.844,52.185 174.083,51.145 173.039 C 50.106 171.995,49.255 171.062,49.255 170.966 C 49.255 170.869,49.011 170.507,48.713 170.160 L 48.171 169.530 39.084 169.530 C 32.025 169.530,29.973 169.594,29.888 169.817 M109.737 198.740 L 109.737 227.950 118.557 227.950 L 127.377 227.950 127.377 216.609 L 127.377 205.269 136.999 205.269 L 146.621 205.269 146.621 198.511 L 146.621 191.753 136.999 191.753 L 127.377 191.753 127.377 187.285 L 127.377 182.818 137.915 182.818 L 148.454 182.818 148.454 176.174 L 148.454 169.530 129.095 169.530 L 109.737 169.530 109.737 198.740 M156.930 198.740 L 156.930 227.950 166.094 227.950 L 175.258 227.950 175.258 198.740 L 175.258 169.530 166.094 169.530 L 156.930 169.530 156.930 198.740 M187.400 198.740 L 187.400 227.950 196.449 227.950 L 205.498 227.950 205.498 210.837 L 205.498 193.725 206.586 194.954 C 207.185 195.630,208.525 197.044,209.565 198.095 C 210.604 199.146,211.455 200.108,211.455 200.232 C 211.455 200.357,211.558 200.458,211.684 200.458 C 211.810 200.458,211.913 200.564,211.913 200.692 C 211.913 200.821,212.454 201.484,213.116 202.167 C 213.777 202.849,214.731 203.893,215.235 204.488 C 215.739 205.083,216.875 206.303,217.759 207.200 C 218.644 208.097,219.622 209.189,219.933 209.627 C 220.244 210.065,221.015 210.957,221.647 211.608 C 222.278 212.260,223.207 213.283,223.711 213.881 C 224.215 214.480,225.375 215.723,226.289 216.645 C 227.202 217.566,227.950 218.416,227.950 218.532 C 227.950 218.648,228.826 219.636,229.897 220.726 C 230.968 221.817,231.844 222.787,231.844 222.881 C 231.844 222.976,232.910 224.155,234.214 225.501 L 236.583 227.950 245.668 227.950 L 254.754 227.950 254.754 198.740 L 254.754 169.530 245.590 169.530 L 236.426 169.530 236.426 186.614 L 236.426 203.697 234.593 201.847 C 233.585 200.829,232.761 199.944,232.761 199.879 C 232.761 199.814,232.219 199.203,231.558 198.521 C 230.321 197.245,229.139 195.904,228.017 194.505 C 227.665 194.067,226.758 193.068,226.002 192.286 C 224.803 191.046,222.895 188.983,221.420 187.333 C 221.168 187.051,220.550 186.308,220.046 185.683 C 219.542 185.058,218.485 183.902,217.698 183.114 C 216.910 182.326,216.266 181.626,216.266 181.558 C 216.266 181.491,215.518 180.679,214.605 179.754 C 213.691 178.829,212.738 177.778,212.486 177.417 C 211.927 176.618,210.804 175.328,209.278 173.733 C 208.648 173.075,207.514 171.865,206.758 171.045 L 205.384 169.554 196.392 169.542 L 187.400 169.530 187.400 198.740 M266.667 198.740 L 266.667 227.950 275.830 227.950 L 284.994 227.950 284.994 198.740 L 284.994 169.530 275.830 169.530 L 266.667 169.530 266.667 198.740 M290.951 176.174 L 290.951 182.818 297.824 182.818 L 304.696 182.818 304.696 205.384 L 304.696 227.950 313.860 227.950 L 323.024 227.950 323.024 205.384 L 323.024 182.818 330.126 182.818 L 337.228 182.818 337.228 178.121 C 337.228 173.805,337.391 172.591,337.797 173.872 C 337.875 174.117,338.397 174.804,338.958 175.397 C 339.518 175.991,339.977 176.573,339.977 176.691 C 339.977 176.810,340.261 177.182,340.607 177.517 C 340.954 177.853,341.594 178.591,342.029 179.156 C 342.465 179.721,343.006 180.318,343.232 180.483 C 343.458 180.647,343.643 180.884,343.643 181.009 C 343.643 181.133,343.875 181.483,344.158 181.786 C 344.930 182.612,345.155 182.906,345.482 183.520 C 345.646 183.827,346.073 184.351,346.430 184.685 C 346.787 185.019,347.079 185.381,347.079 185.488 C 347.079 185.596,347.491 186.122,347.995 186.657 C 348.499 187.192,348.912 187.733,348.912 187.858 C 348.912 187.984,348.997 188.087,349.102 188.087 C 349.207 188.087,349.430 188.343,349.597 188.656 C 349.765 188.969,350.091 189.285,350.323 189.359 C 350.555 189.432,350.745 189.628,350.745 189.793 C 350.745 189.958,351.131 190.495,351.604 190.986 C 352.076 191.478,352.605 192.153,352.780 192.488 C 352.954 192.822,353.444 193.464,353.868 193.914 C 354.292 194.364,354.639 194.810,354.639 194.904 C 354.639 194.999,355.052 195.515,355.556 196.050 C 356.060 196.585,356.472 197.090,356.472 197.172 C 356.472 197.255,356.884 197.714,357.388 198.194 C 357.892 198.673,358.305 199.201,358.305 199.368 C 358.305 199.534,358.511 199.818,358.763 200.000 C 359.212 200.324,359.221 200.593,359.221 214.140 L 359.221 227.950 368.156 227.950 L 377.090 227.950 377.090 214.176 L 377.090 200.403 377.721 199.407 C 378.067 198.859,378.531 198.349,378.751 198.273 C 378.972 198.198,379.152 198.041,379.152 197.925 C 379.152 197.661,379.680 197.010,380.928 195.737 C 381.463 195.190,381.901 194.651,381.901 194.539 C 381.901 194.426,382.468 193.744,383.162 193.023 C 383.855 192.302,384.422 191.621,384.422 191.511 C 384.422 191.400,384.759 190.971,385.171 190.557 C 385.582 190.144,386.226 189.393,386.602 188.889 C 386.977 188.385,387.568 187.699,387.914 187.365 C 388.261 187.031,388.545 186.644,388.545 186.506 C 388.545 186.368,388.648 186.254,388.774 186.254 C 388.900 186.254,389.003 186.152,389.003 186.026 C 389.003 185.901,389.519 185.272,390.149 184.629 C 390.779 183.985,391.294 183.364,391.294 183.248 C 391.294 183.131,391.707 182.601,392.212 182.068 C 393.768 180.424,395.647 178.188,395.647 177.979 C 395.647 177.870,396.163 177.254,396.793 176.610 C 397.423 175.967,397.938 175.345,397.938 175.228 C 397.938 175.112,398.402 174.553,398.969 173.986 L 400.000 172.955 400.000 171.243 L 400.000 169.530 390.128 169.530 L 380.257 169.530 379.827 170.046 C 379.590 170.329,379.393 170.700,379.389 170.870 C 379.385 171.040,379.072 171.468,378.694 171.821 C 378.316 172.174,378.007 172.539,378.007 172.631 C 378.007 172.723,377.822 172.965,377.595 173.169 C 377.369 173.373,376.932 173.900,376.624 174.341 C 376.316 174.782,375.780 175.442,375.432 175.807 C 375.084 176.172,374.800 176.560,374.800 176.668 C 374.800 176.777,374.490 177.189,374.112 177.585 C 373.734 177.980,373.425 178.395,373.425 178.507 C 373.425 178.618,373.064 179.070,372.623 179.511 C 372.182 179.952,371.821 180.402,371.821 180.510 C 371.821 180.619,371.512 181.039,371.134 181.443 C 370.756 181.848,370.447 182.272,370.447 182.386 C 370.447 182.500,370.137 182.917,369.759 183.312 C 369.381 183.708,369.072 184.171,369.072 184.341 C 369.072 184.743,368.462 184.742,368.224 184.340 C 367.935 183.851,366.509 182.141,365.693 181.305 C 365.284 180.885,364.948 180.436,364.948 180.306 C 364.948 180.176,364.536 179.644,364.032 179.125 C 363.528 178.606,363.116 178.080,363.116 177.957 C 363.116 177.833,362.806 177.444,362.428 177.090 C 362.050 176.737,361.741 176.335,361.741 176.197 C 361.741 176.058,361.638 175.945,361.512 175.945 C 361.386 175.945,361.283 175.836,361.283 175.703 C 361.283 175.571,360.974 175.133,360.597 174.730 C 360.219 174.327,359.910 173.924,359.909 173.834 C 359.909 173.743,359.548 173.309,359.107 172.868 C 358.666 172.426,358.305 171.976,358.305 171.865 C 358.305 171.755,357.851 171.185,357.296 170.598 L 356.288 169.530 323.619 169.530 L 290.951 169.530 290.951 176.174 " stroke="none" fill="#444443" fill-rule="evenodd"></path><path id="path1" d="M114.605 0.151 C 114.069 0.209,113.631 0.365,113.631 0.498 C 113.631 0.632,113.433 0.689,113.190 0.625 C 112.893 0.548,112.786 0.607,112.863 0.807 C 112.926 0.971,112.765 1.171,112.502 1.255 C 112.241 1.338,112.027 1.502,112.027 1.619 C 112.027 1.737,111.895 1.833,111.734 1.833 C 111.572 1.833,110.877 2.392,110.187 3.076 C 109.071 4.183,108.468 5.136,107.419 7.446 C 107.173 7.989,107.092 10.543,107.032 19.617 L 106.957 31.101 107.514 31.702 C 107.820 32.032,108.192 32.302,108.341 32.302 C 108.489 32.302,108.832 32.509,109.102 32.761 C 109.373 33.013,109.729 33.219,109.894 33.219 C 110.060 33.219,110.195 33.322,110.195 33.448 C 110.195 33.574,110.407 33.677,110.666 33.677 C 110.926 33.677,111.074 33.780,110.997 33.906 C 110.919 34.032,111.017 34.135,111.215 34.135 C 111.602 34.135,112.398 34.539,112.879 34.979 C 113.042 35.129,113.381 35.316,113.633 35.396 C 113.884 35.475,114.089 35.637,114.089 35.754 C 114.089 35.872,114.296 35.968,114.548 35.968 C 114.800 35.968,115.006 36.071,115.006 36.197 C 115.006 36.323,115.212 36.426,115.464 36.426 C 115.716 36.426,115.922 36.529,115.922 36.655 C 115.922 36.781,116.128 36.884,116.380 36.884 C 116.632 36.884,116.838 36.975,116.838 37.086 C 116.838 37.196,117.148 37.415,117.526 37.572 C 117.904 37.728,118.213 37.935,118.213 38.031 C 118.213 38.191,119.028 38.497,119.225 38.411 C 119.272 38.390,119.502 38.533,119.735 38.728 C 119.969 38.924,120.779 39.384,121.535 39.752 C 122.291 40.120,122.944 40.501,122.986 40.600 C 123.028 40.698,123.260 40.779,123.501 40.779 C 123.743 40.779,123.940 40.866,123.940 40.972 C 123.940 41.078,124.430 41.413,125.029 41.717 C 125.627 42.020,126.151 42.345,126.193 42.440 C 126.235 42.534,126.467 42.612,126.709 42.612 C 126.950 42.612,127.148 42.715,127.148 42.841 C 127.148 42.967,127.302 43.070,127.491 43.070 C 127.680 43.070,127.835 43.173,127.835 43.299 C 127.835 43.425,127.994 43.528,128.188 43.528 C 128.383 43.528,128.763 43.734,129.033 43.986 C 129.304 44.238,129.660 44.444,129.826 44.444 C 129.991 44.444,130.126 44.548,130.126 44.674 C 130.126 44.800,130.332 44.903,130.584 44.903 C 130.836 44.903,131.042 45.006,131.042 45.132 C 131.042 45.258,131.240 45.361,131.481 45.361 C 131.723 45.361,131.955 45.453,131.997 45.565 C 132.039 45.677,133.104 46.306,134.364 46.963 C 135.624 47.619,136.818 48.301,137.017 48.477 C 137.216 48.653,137.551 48.797,137.761 48.797 C 137.972 48.797,138.144 48.900,138.144 49.026 C 138.144 49.152,138.351 49.255,138.603 49.255 C 138.855 49.255,139.061 49.339,139.061 49.442 C 139.061 49.544,139.417 49.768,139.852 49.939 C 140.287 50.109,140.591 50.335,140.526 50.440 C 140.461 50.544,140.621 50.630,140.880 50.630 C 141.139 50.630,141.352 50.733,141.352 50.859 C 141.352 50.985,141.558 51.088,141.810 51.088 C 142.062 51.088,142.268 51.191,142.268 51.317 C 142.268 51.443,142.474 51.546,142.726 51.546 C 142.978 51.546,143.184 51.649,143.184 51.775 C 143.184 51.901,143.339 52.005,143.528 52.005 C 143.717 52.005,143.872 52.108,143.872 52.234 C 143.872 52.360,144.026 52.463,144.215 52.463 C 144.404 52.463,144.559 52.547,144.559 52.649 C 144.559 52.752,144.920 52.977,145.361 53.150 C 145.802 53.323,146.163 53.549,146.163 53.651 C 146.163 53.753,146.297 53.837,146.461 53.837 C 146.882 53.837,147.991 54.376,147.994 54.582 C 147.995 54.676,148.150 54.754,148.339 54.754 C 148.528 54.754,148.683 54.857,148.683 54.983 C 148.683 55.109,148.837 55.212,149.026 55.212 C 149.215 55.212,149.370 55.315,149.370 55.441 C 149.370 55.567,149.534 55.670,149.736 55.670 C 149.937 55.670,150.375 55.855,150.709 56.081 C 151.044 56.306,151.730 56.693,152.234 56.940 C 152.738 57.186,153.184 57.466,153.226 57.560 C 153.268 57.655,153.475 57.734,153.685 57.737 C 153.895 57.740,154.324 57.944,154.639 58.190 C 154.954 58.437,155.341 58.640,155.498 58.643 C 155.656 58.646,155.785 58.751,155.785 58.877 C 155.785 59.003,155.939 59.107,156.128 59.107 C 156.317 59.107,156.472 59.210,156.472 59.336 C 156.472 59.462,156.678 59.565,156.930 59.565 C 157.182 59.565,157.388 59.668,157.388 59.794 C 157.388 59.920,157.595 60.023,157.847 60.023 C 158.099 60.023,158.305 60.114,158.305 60.226 C 158.305 60.338,158.666 60.600,159.107 60.809 C 159.548 61.019,159.908 61.290,159.908 61.412 C 159.908 61.534,159.548 61.806,159.107 62.016 C 158.666 62.227,158.305 62.483,158.305 62.585 C 158.305 62.688,158.099 62.772,157.847 62.772 C 157.595 62.772,157.388 62.875,157.388 63.001 C 157.388 63.127,157.182 63.230,156.930 63.230 C 156.678 63.230,156.472 63.333,156.472 63.459 C 156.472 63.585,156.317 63.688,156.128 63.688 C 155.939 63.688,155.785 63.792,155.785 63.918 C 155.785 64.044,155.572 64.147,155.313 64.147 C 155.053 64.147,154.905 64.250,154.983 64.376 C 155.061 64.502,154.964 64.605,154.767 64.605 C 154.571 64.605,154.410 64.708,154.410 64.834 C 154.410 64.960,154.146 65.063,153.824 65.063 C 153.491 65.063,153.299 65.162,153.379 65.292 C 153.457 65.418,153.308 65.521,153.049 65.521 C 152.790 65.521,152.577 65.605,152.577 65.708 C 152.577 65.810,152.216 66.035,151.775 66.208 C 151.334 66.382,150.974 66.607,150.974 66.709 C 150.974 66.812,150.860 66.896,150.722 66.896 C 150.447 66.896,148.867 67.596,148.683 67.800 C 148.620 67.870,148.207 68.103,147.766 68.318 C 146.617 68.879,145.602 69.503,145.514 69.702 C 145.472 69.797,145.262 69.874,145.049 69.874 C 144.835 69.874,144.512 70.080,144.330 70.332 C 144.148 70.584,143.816 70.790,143.592 70.790 C 143.368 70.790,143.184 70.893,143.184 71.019 C 143.184 71.145,142.978 71.249,142.726 71.249 C 142.474 71.249,142.268 71.352,142.268 71.478 C 142.268 71.604,142.070 71.707,141.829 71.707 C 141.587 71.707,141.355 71.784,141.313 71.879 C 141.271 71.973,140.773 72.300,140.206 72.606 C 139.639 72.912,139.124 73.221,139.061 73.293 C 138.815 73.576,137.902 73.998,137.537 73.998 C 137.325 73.998,137.219 74.065,137.301 74.147 C 137.455 74.302,136.437 74.914,136.026 74.914 C 135.898 74.914,135.626 75.104,135.422 75.336 C 135.218 75.568,134.742 75.833,134.364 75.926 C 133.986 76.019,133.522 76.227,133.333 76.388 C 133.144 76.549,132.216 77.082,131.271 77.573 C 130.326 78.064,129.519 78.542,129.477 78.637 C 129.435 78.731,129.254 78.809,129.076 78.809 C 128.897 78.809,128.751 78.912,128.751 79.038 C 128.751 79.164,128.539 79.267,128.280 79.267 C 128.020 79.267,127.872 79.370,127.950 79.496 C 128.027 79.622,127.879 79.725,127.619 79.725 C 127.360 79.725,127.148 79.828,127.148 79.954 C 127.148 80.080,126.942 80.183,126.690 80.183 C 126.438 80.183,126.231 80.286,126.231 80.412 C 126.231 80.538,126.072 80.641,125.878 80.641 C 125.684 80.641,125.304 80.848,125.033 81.100 C 124.763 81.352,124.406 81.558,124.241 81.558 C 124.076 81.558,123.940 81.661,123.940 81.787 C 123.940 81.913,123.734 82.016,123.482 82.016 C 123.230 82.016,123.024 82.119,123.024 82.245 C 123.024 82.371,122.818 82.474,122.566 82.474 C 122.314 82.474,122.108 82.558,122.108 82.661 C 122.108 82.763,121.747 82.988,121.306 83.162 C 120.865 83.335,120.504 83.560,120.504 83.662 C 120.504 83.765,120.349 83.849,120.160 83.849 C 119.971 83.849,119.817 83.952,119.817 84.078 C 119.817 84.204,119.619 84.307,119.378 84.307 C 119.136 84.307,118.904 84.384,118.862 84.479 C 118.820 84.573,118.373 84.856,117.869 85.107 C 117.365 85.357,116.901 85.615,116.838 85.679 C 116.571 85.952,115.673 86.369,115.352 86.369 C 115.162 86.369,115.006 86.456,115.006 86.563 C 115.006 86.670,114.593 86.944,114.088 87.171 C 113.583 87.399,113.055 87.724,112.915 87.893 C 112.774 88.063,112.465 88.202,112.229 88.202 C 111.992 88.202,111.798 88.305,111.798 88.431 C 111.798 88.557,111.644 88.660,111.455 88.660 C 111.266 88.660,111.111 88.763,111.111 88.889 C 111.111 89.015,110.905 89.118,110.653 89.118 C 110.401 89.118,110.195 89.221,110.195 89.347 C 110.195 89.473,110.040 89.576,109.851 89.576 C 109.662 89.576,109.507 89.679,109.507 89.805 C 109.507 89.931,109.353 90.034,109.164 90.034 C 108.975 90.034,108.820 90.137,108.820 90.263 C 108.820 90.389,108.614 90.493,108.362 90.493 C 108.110 90.493,107.904 90.596,107.904 90.722 C 107.904 90.848,107.769 90.951,107.603 90.951 C 107.438 90.951,107.082 91.157,106.811 91.409 C 106.541 91.661,106.160 91.867,105.966 91.867 C 105.772 91.867,105.613 91.945,105.613 92.040 C 105.613 92.136,105.278 92.359,104.868 92.537 C 104.459 92.716,104.072 92.921,104.009 92.994 C 103.946 93.067,103.482 93.343,102.978 93.607 C 102.474 93.871,101.649 94.323,101.145 94.611 C 100.641 94.899,99.353 95.599,98.282 96.166 C 97.211 96.734,96.077 97.369,95.762 97.577 C 95.447 97.784,94.880 98.105,94.502 98.290 C 94.124 98.474,93.763 98.679,93.700 98.745 C 93.637 98.812,93.096 99.121,92.497 99.432 C 91.899 99.744,91.409 100.077,91.409 100.171 C 91.409 100.266,91.211 100.344,90.970 100.344 C 90.728 100.344,90.496 100.421,90.454 100.516 C 90.348 100.757,87.570 102.095,86.598 102.374 C 86.157 102.500,85.368 102.727,84.845 102.877 C 83.685 103.211,80.403 102.941,79.152 102.408 C 78.586 102.167,76.976 101.934,76.976 102.093 C 76.976 102.306,77.627 102.864,77.876 102.864 C 78.011 102.864,78.121 102.967,78.121 103.093 C 78.121 103.219,78.276 103.322,78.465 103.322 C 78.654 103.322,78.809 103.425,78.809 103.551 C 78.809 103.677,78.968 103.780,79.162 103.780 C 79.356 103.780,79.736 103.986,80.007 104.238 C 80.277 104.490,80.634 104.696,80.799 104.696 C 80.964 104.696,81.100 104.800,81.100 104.926 C 81.100 105.052,81.306 105.155,81.558 105.155 C 81.810 105.155,82.016 105.258,82.016 105.384 C 82.016 105.510,82.171 105.613,82.360 105.613 C 82.549 105.613,82.703 105.716,82.703 105.842 C 82.703 105.968,82.858 106.071,83.047 106.071 C 83.236 106.071,83.391 106.174,83.391 106.300 C 83.391 106.426,83.614 106.529,83.887 106.529 C 84.160 106.529,84.319 106.593,84.241 106.671 C 84.163 106.750,84.635 107.078,85.291 107.400 C 85.947 107.723,86.567 108.125,86.669 108.294 C 86.772 108.463,86.952 108.541,87.070 108.468 C 87.188 108.395,87.285 108.434,87.285 108.555 C 87.285 108.676,87.595 108.883,87.973 109.015 C 88.351 109.147,88.660 109.363,88.660 109.496 C 88.660 109.628,88.737 109.716,88.832 109.691 C 89.144 109.609,90.034 109.993,90.034 110.210 C 90.034 110.328,90.241 110.424,90.493 110.424 C 90.745 110.424,90.951 110.527,90.951 110.653 C 90.951 110.779,91.110 110.882,91.304 110.882 C 91.498 110.882,91.879 111.088,92.149 111.340 C 92.419 111.592,92.782 111.798,92.955 111.798 C 93.127 111.798,93.217 111.883,93.153 111.986 C 93.089 112.089,93.392 112.302,93.827 112.459 C 94.261 112.616,94.616 112.830,94.616 112.934 C 94.616 113.038,94.870 113.187,95.181 113.265 C 95.491 113.343,96.002 113.663,96.316 113.977 C 96.630 114.291,96.982 114.548,97.100 114.548 C 97.354 114.548,98.062 114.921,99.313 115.712 C 99.817 116.031,100.590 116.471,101.031 116.690 C 102.425 117.380,103.428 118.007,103.702 118.360 C 103.848 118.548,104.003 118.688,104.046 118.672 C 104.205 118.610,105.051 118.979,105.384 119.255 C 106.032 119.793,108.858 121.191,109.297 121.191 C 109.539 121.191,109.737 121.294,109.737 121.420 C 109.737 121.546,109.943 121.649,110.195 121.649 C 110.447 121.649,110.653 121.753,110.653 121.879 C 110.653 122.005,110.956 122.108,111.327 122.108 C 111.697 122.108,112.057 122.200,112.127 122.313 C 112.581 123.047,122.795 123.048,122.795 122.314 C 122.795 122.200,123.104 122.108,123.482 122.108 C 123.860 122.108,124.170 122.005,124.170 121.879 C 124.170 121.753,124.318 121.649,124.499 121.649 C 124.681 121.649,125.426 121.340,126.154 120.962 C 126.883 120.584,127.563 120.275,127.666 120.275 C 127.770 120.275,128.076 120.069,128.346 119.817 C 128.617 119.565,129.025 119.359,129.253 119.359 C 129.481 119.359,129.668 119.278,129.668 119.180 C 129.668 119.038,130.636 118.534,131.271 118.345 C 131.512 118.274,132.537 117.680,132.646 117.549 C 132.709 117.473,133.173 117.195,133.677 116.931 C 134.181 116.667,134.980 116.229,135.452 115.957 C 135.925 115.686,136.698 115.248,137.171 114.984 C 137.643 114.720,138.128 114.411,138.247 114.297 C 138.367 114.183,138.631 114.089,138.834 114.089 C 139.037 114.089,139.409 113.909,139.659 113.688 C 140.310 113.116,141.059 112.715,141.477 112.715 C 141.675 112.715,141.773 112.612,141.695 112.486 C 141.617 112.360,141.766 112.257,142.025 112.257 C 142.285 112.257,142.497 112.153,142.497 112.027 C 142.497 111.901,142.652 111.798,142.841 111.798 C 143.030 111.798,143.184 111.695,143.184 111.569 C 143.184 111.443,143.339 111.340,143.528 111.340 C 143.717 111.340,143.872 111.237,143.872 111.111 C 143.872 110.985,144.078 110.882,144.330 110.882 C 144.582 110.882,144.788 110.779,144.788 110.653 C 144.788 110.527,144.953 110.424,145.154 110.424 C 145.355 110.424,145.804 110.221,146.153 109.972 C 146.502 109.724,146.853 109.587,146.933 109.667 C 147.013 109.747,147.079 109.710,147.079 109.585 C 147.079 109.459,147.620 109.108,148.282 108.804 C 148.943 108.501,149.536 108.199,149.599 108.135 C 149.662 108.070,149.997 107.871,150.344 107.693 C 150.690 107.514,150.974 107.282,150.974 107.178 C 150.974 107.073,151.134 106.987,151.329 106.987 C 151.525 106.987,152.058 106.734,152.513 106.425 C 152.969 106.115,153.427 105.915,153.532 105.980 C 153.637 106.045,153.723 105.989,153.723 105.855 C 153.723 105.722,153.858 105.613,154.023 105.613 C 154.188 105.613,154.545 105.407,154.815 105.155 C 155.086 104.903,155.466 104.696,155.661 104.696 C 155.855 104.696,156.014 104.618,156.014 104.521 C 156.014 104.425,156.413 104.174,156.900 103.962 C 157.388 103.751,157.933 103.443,158.112 103.278 C 158.610 102.819,159.405 102.405,159.791 102.405 C 159.981 102.405,160.137 102.302,160.137 102.176 C 160.137 102.050,160.292 101.947,160.481 101.947 C 160.670 101.947,160.825 101.864,160.825 101.762 C 160.825 101.556,162.674 100.674,162.944 100.752 C 163.038 100.779,163.116 100.724,163.116 100.629 C 163.116 100.533,163.447 100.309,163.852 100.129 C 164.257 99.950,165.020 99.513,165.546 99.157 C 166.073 98.802,166.622 98.511,166.767 98.511 C 166.911 98.511,167.251 98.305,167.521 98.053 C 167.792 97.801,168.206 97.595,168.442 97.595 C 168.677 97.595,168.806 97.491,168.729 97.365 C 168.651 97.239,168.805 97.136,169.072 97.136 C 169.339 97.136,169.494 97.033,169.416 96.907 C 169.338 96.781,169.486 96.678,169.746 96.678 C 170.005 96.678,170.218 96.575,170.218 96.449 C 170.218 96.323,170.424 96.220,170.676 96.220 C 170.928 96.220,171.134 96.117,171.134 95.991 C 171.134 95.865,171.340 95.762,171.592 95.762 C 171.844 95.762,172.050 95.659,172.050 95.533 C 172.050 95.407,172.186 95.304,172.351 95.304 C 172.516 95.304,172.873 95.097,173.143 94.845 C 173.414 94.593,173.794 94.387,173.988 94.387 C 174.182 94.387,174.341 94.284,174.341 94.158 C 174.341 94.032,174.548 93.929,174.800 93.929 C 175.052 93.929,175.258 93.826,175.258 93.700 C 175.258 93.574,175.464 93.471,175.716 93.471 C 175.968 93.471,176.174 93.379,176.174 93.268 C 176.174 93.067,177.810 92.197,177.981 92.307 C 178.030 92.339,178.133 92.278,178.210 92.173 C 178.396 91.919,179.622 91.184,180.126 91.024 C 180.347 90.955,180.527 90.806,180.527 90.695 C 180.527 90.584,180.733 90.493,180.985 90.493 C 181.237 90.493,181.443 90.389,181.443 90.263 C 181.443 90.137,181.542 90.034,181.662 90.034 C 181.783 90.034,182.427 89.709,183.094 89.312 C 183.761 88.914,184.822 88.310,185.452 87.968 C 186.082 87.626,187.036 87.108,187.572 86.815 C 188.107 86.523,188.545 86.200,188.545 86.097 C 188.545 85.995,188.743 85.911,188.984 85.911 C 189.226 85.911,189.458 85.833,189.500 85.739 C 189.542 85.644,190.066 85.319,190.664 85.016 C 191.263 84.712,191.753 84.377,191.753 84.271 C 191.753 84.165,191.950 84.078,192.192 84.078 C 192.433 84.078,192.665 84.001,192.707 83.906 C 192.749 83.812,193.402 83.425,194.158 83.047 C 194.914 82.669,195.584 82.308,195.647 82.245 C 195.964 81.928,196.793 81.581,196.793 81.765 C 196.793 81.880,197.231 82.200,197.766 82.475 C 198.302 82.750,198.954 83.095,199.215 83.240 C 199.477 83.386,200.065 83.651,200.522 83.830 C 200.980 84.009,201.301 84.241,201.236 84.346 C 201.171 84.450,201.331 84.536,201.590 84.536 C 201.850 84.536,202.062 84.639,202.062 84.765 C 202.062 84.891,202.268 84.994,202.520 84.994 C 202.772 84.994,202.978 85.097,202.978 85.223 C 202.978 85.349,203.184 85.452,203.436 85.452 C 203.688 85.452,203.895 85.538,203.895 85.643 C 203.895 85.748,204.178 85.979,204.525 86.158 C 204.871 86.337,205.206 86.536,205.269 86.601 C 205.332 86.666,205.899 86.974,206.529 87.285 C 207.159 87.597,207.726 87.906,207.789 87.973 C 207.852 88.039,208.393 88.340,208.992 88.642 C 209.590 88.943,210.080 89.277,210.080 89.383 C 210.080 89.489,210.286 89.576,210.538 89.576 C 210.790 89.576,210.997 89.679,210.997 89.805 C 210.997 89.931,211.203 90.034,211.455 90.034 C 211.707 90.034,211.913 90.137,211.913 90.263 C 211.913 90.389,212.048 90.493,212.213 90.493 C 212.379 90.493,212.735 90.699,213.006 90.951 C 213.276 91.203,213.656 91.409,213.851 91.409 C 214.045 91.409,214.204 91.512,214.204 91.638 C 214.204 91.764,214.349 91.867,214.526 91.867 C 214.702 91.867,215.486 92.228,216.266 92.669 C 217.046 93.110,217.778 93.471,217.891 93.471 C 218.005 93.471,218.099 93.574,218.099 93.700 C 218.099 93.826,218.305 93.929,218.557 93.929 C 218.809 93.929,219.015 94.020,219.015 94.130 C 219.015 94.241,219.324 94.460,219.702 94.616 C 220.080 94.773,220.389 94.992,220.389 95.102 C 220.389 95.213,220.596 95.304,220.848 95.304 C 221.100 95.304,221.306 95.407,221.306 95.533 C 221.306 95.659,221.512 95.762,221.764 95.762 C 222.016 95.762,222.222 95.865,222.222 95.991 C 222.222 96.117,222.377 96.220,222.566 96.220 C 222.755 96.220,222.910 96.323,222.910 96.449 C 222.910 96.575,223.068 96.678,223.263 96.678 C 223.457 96.678,223.837 96.884,224.108 97.136 C 224.378 97.388,224.735 97.595,224.900 97.595 C 225.065 97.595,225.200 97.698,225.200 97.824 C 225.200 97.950,225.407 98.053,225.659 98.053 C 225.911 98.053,226.117 98.156,226.117 98.282 C 226.117 98.408,226.279 98.511,226.477 98.511 C 226.675 98.511,226.992 98.666,227.183 98.857 C 227.373 99.047,227.623 99.144,227.739 99.072 C 227.855 99.001,227.950 99.043,227.950 99.166 C 227.950 99.289,228.465 99.623,229.095 99.908 C 229.725 100.192,230.241 100.510,230.241 100.614 C 230.241 100.717,230.447 100.802,230.699 100.802 C 230.951 100.802,231.157 100.889,231.157 100.996 C 231.157 101.103,231.621 101.382,232.188 101.616 C 232.755 101.850,233.219 102.123,233.219 102.223 C 233.219 102.324,233.416 102.405,233.658 102.405 C 233.899 102.405,234.131 102.483,234.173 102.577 C 234.247 102.743,235.758 103.619,236.825 104.114 C 237.108 104.245,237.340 104.430,237.341 104.525 C 237.342 104.619,237.501 104.696,237.696 104.696 C 237.890 104.696,238.270 104.903,238.541 105.155 C 238.811 105.407,239.168 105.613,239.333 105.613 C 239.498 105.613,239.633 105.697,239.633 105.799 C 239.633 105.902,239.994 106.127,240.435 106.300 C 240.876 106.473,241.237 106.699,241.237 106.801 C 241.237 106.904,241.443 106.987,241.695 106.987 C 241.947 106.987,242.154 107.065,242.155 107.159 C 242.156 107.254,242.388 107.447,242.671 107.588 C 244.375 108.442,246.487 109.574,247.079 109.952 C 247.457 110.193,247.947 110.398,248.167 110.407 C 248.388 110.416,248.568 110.527,248.568 110.653 C 248.568 110.779,248.664 110.882,248.782 110.882 C 249.055 110.882,251.407 112.315,251.508 112.543 C 251.550 112.637,251.782 112.715,252.024 112.715 C 252.265 112.715,252.463 112.818,252.463 112.944 C 252.463 113.070,252.622 113.173,252.816 113.173 C 253.010 113.173,253.391 113.379,253.661 113.631 C 253.932 113.883,254.288 114.089,254.453 114.089 C 254.619 114.089,254.754 114.192,254.754 114.318 C 254.754 114.444,254.888 114.548,255.052 114.548 C 255.473 114.548,256.583 115.086,256.585 115.292 C 256.586 115.387,256.793 115.464,257.045 115.464 C 257.297 115.464,257.503 115.543,257.503 115.639 C 257.503 115.818,257.574 115.862,259.412 116.827 C 260.000 117.135,260.481 117.471,260.481 117.571 C 260.481 117.672,260.687 117.755,260.939 117.755 C 261.191 117.755,261.397 117.854,261.397 117.975 C 261.397 118.095,261.913 118.377,262.543 118.601 C 263.173 118.825,263.688 119.087,263.688 119.183 C 263.688 119.280,263.895 119.359,264.147 119.359 C 264.399 119.359,264.605 119.442,264.605 119.545 C 264.605 119.647,264.966 119.873,265.407 120.046 C 265.848 120.219,266.208 120.444,266.208 120.547 C 266.208 120.649,266.409 120.733,266.653 120.733 C 266.898 120.733,267.162 120.836,267.239 120.962 C 267.317 121.088,267.633 121.191,267.940 121.191 C 268.248 121.191,268.499 121.294,268.499 121.420 C 268.499 121.546,268.854 121.649,269.288 121.649 C 269.721 121.649,270.140 121.753,270.218 121.879 C 270.440 122.239,278.350 122.183,278.354 121.821 C 278.356 121.630,278.432 121.649,278.580 121.879 C 278.728 122.108,278.803 122.127,278.805 121.936 C 278.807 121.771,279.101 121.649,279.496 121.649 C 279.874 121.649,280.183 121.546,280.183 121.420 C 280.183 121.294,280.493 121.191,280.871 121.191 C 281.249 121.191,281.558 121.088,281.558 120.962 C 281.558 120.836,281.816 120.733,282.131 120.733 C 282.446 120.733,282.703 120.630,282.703 120.504 C 282.703 120.378,282.910 120.275,283.162 120.275 C 283.414 120.275,283.620 120.172,283.620 120.046 C 283.620 119.920,283.858 119.817,284.149 119.817 C 284.440 119.817,284.900 119.611,285.171 119.359 C 285.441 119.107,285.801 118.900,285.971 118.900 C 286.141 118.900,286.629 118.643,287.056 118.328 C 287.483 118.013,287.967 117.755,288.132 117.755 C 288.296 117.755,288.431 117.664,288.431 117.552 C 288.431 117.441,288.611 117.293,288.832 117.223 C 289.352 117.058,290.465 116.374,291.041 115.865 C 291.291 115.644,291.631 115.464,291.796 115.464 C 291.961 115.464,292.096 115.361,292.096 115.235 C 292.096 115.109,292.294 115.006,292.535 115.006 C 292.777 115.006,293.009 114.910,293.051 114.794 C 293.093 114.677,293.282 114.548,293.471 114.507 C 293.660 114.466,293.981 114.253,294.185 114.032 C 294.389 113.812,294.724 113.631,294.930 113.631 C 295.135 113.631,295.304 113.528,295.304 113.402 C 295.304 113.276,295.487 113.173,295.711 113.173 C 295.935 113.173,296.266 112.969,296.445 112.720 C 296.685 112.387,296.819 112.341,296.951 112.548 C 297.091 112.769,297.130 112.768,297.133 112.543 C 297.135 112.385,297.291 112.257,297.480 112.257 C 297.669 112.257,297.824 112.153,297.824 112.027 C 297.824 111.901,297.967 111.798,298.143 111.798 C 298.439 111.798,298.852 111.146,298.670 110.965 C 298.493 110.788,295.999 112.162,295.995 112.438 C 295.993 112.601,295.862 112.709,295.704 112.677 C 295.327 112.601,293.700 113.397,293.700 113.657 C 293.700 113.769,293.494 113.860,293.242 113.860 C 292.990 113.860,292.784 113.951,292.784 114.063 C 292.784 114.174,292.603 114.322,292.383 114.392 C 291.990 114.517,290.719 115.237,290.493 115.464 C 290.430 115.527,289.966 115.792,289.462 116.053 C 288.521 116.540,287.183 117.285,285.567 118.221 C 285.063 118.512,284.010 119.079,283.226 119.479 C 282.442 119.879,281.660 120.324,281.487 120.468 C 280.748 121.081,280.967 120.375,281.751 119.617 C 283.265 118.152,284.607 115.824,285.134 113.746 C 285.230 113.368,285.343 109.270,285.386 104.639 C 285.461 96.433,285.475 96.220,285.916 96.220 C 286.165 96.220,286.369 96.323,286.369 96.449 C 286.369 96.575,286.575 96.678,286.827 96.678 C 287.079 96.678,287.285 96.781,287.285 96.907 C 287.285 97.033,287.491 97.136,287.743 97.136 C 287.995 97.136,288.202 97.239,288.202 97.365 C 288.202 97.491,288.408 97.595,288.660 97.595 C 288.912 97.595,289.118 97.698,289.118 97.824 C 289.118 97.950,289.324 98.053,289.576 98.053 C 289.828 98.053,290.034 98.156,290.034 98.282 C 290.034 98.408,290.241 98.511,290.493 98.511 C 290.745 98.511,290.951 98.614,290.951 98.740 C 290.951 98.866,291.260 98.969,291.638 98.969 C 292.016 98.969,292.325 99.072,292.325 99.198 C 292.325 99.324,292.480 99.427,292.669 99.427 C 292.858 99.427,293.013 99.530,293.013 99.656 C 293.013 99.782,293.219 99.885,293.471 99.885 C 293.723 99.885,293.929 99.989,293.929 100.115 C 293.929 100.241,294.135 100.344,294.387 100.344 C 294.639 100.344,294.845 100.447,294.845 100.573 C 294.845 100.699,295.052 100.802,295.304 100.802 C 295.556 100.802,295.762 100.896,295.762 101.011 C 295.762 101.126,296.174 101.289,296.678 101.375 C 297.182 101.460,297.595 101.623,297.595 101.738 C 297.595 101.853,297.801 101.947,298.053 101.947 C 298.305 101.947,298.511 102.050,298.511 102.176 C 298.511 102.302,298.717 102.405,298.969 102.405 C 299.221 102.405,299.427 102.509,299.427 102.635 C 299.427 102.761,299.633 102.864,299.885 102.864 C 300.137 102.864,300.344 102.967,300.344 103.093 C 300.344 103.219,300.498 103.322,300.687 103.322 C 300.876 103.322,301.031 103.425,301.031 103.551 C 301.031 103.677,301.237 103.780,301.489 103.780 C 301.741 103.780,301.947 103.883,301.947 104.009 C 301.947 104.135,302.153 104.238,302.405 104.238 C 302.658 104.238,302.864 104.341,302.864 104.467 C 302.864 104.593,303.070 104.696,303.322 104.696 C 303.574 104.696,303.780 104.800,303.780 104.926 C 303.780 105.052,303.986 105.155,304.238 105.155 C 304.490 105.155,304.696 105.258,304.696 105.384 C 304.696 105.510,304.892 105.613,305.130 105.613 C 305.790 105.613,305.931 106.279,305.323 106.523 C 304.773 106.744,304.816 106.764,306.128 106.883 C 306.601 106.926,306.987 106.864,306.987 106.745 C 306.987 106.626,307.139 106.529,307.324 106.529 C 307.518 106.529,307.608 106.394,307.537 106.209 C 307.470 106.032,307.540 105.810,307.694 105.715 C 307.874 105.604,307.916 105.637,307.811 105.807 C 307.503 106.304,308.608 105.858,309.235 105.231 C 309.405 105.061,309.639 104.980,309.755 105.052 C 309.871 105.123,309.966 105.073,309.966 104.939 C 309.966 104.806,310.080 104.696,310.219 104.696 C 310.358 104.696,310.779 104.438,311.155 104.122 C 311.530 103.806,311.932 103.606,312.047 103.678 C 312.162 103.749,312.257 103.698,312.257 103.564 C 312.257 103.431,312.463 103.322,312.715 103.322 C 312.967 103.322,313.173 103.219,313.173 103.093 C 313.173 102.967,313.356 102.864,313.581 102.864 C 313.805 102.864,314.137 102.658,314.318 102.405 C 314.500 102.153,314.728 101.947,314.825 101.947 C 315.311 101.947,317.636 99.614,317.392 99.370 C 317.333 99.311,317.443 99.133,317.635 98.974 C 317.827 98.814,317.984 98.542,317.984 98.368 C 317.984 98.195,318.087 98.053,318.213 98.053 C 318.339 98.053,318.442 97.789,318.442 97.466 C 318.442 97.134,318.541 96.941,318.671 97.022 C 318.809 97.107,318.900 96.800,318.900 96.247 C 318.900 95.743,319.003 95.267,319.129 95.189 C 319.280 95.096,319.359 83.736,319.359 61.856 C 319.359 39.975,319.280 28.616,319.129 28.522 C 319.003 28.444,318.900 27.981,318.900 27.491 C 318.900 27.002,318.797 26.538,318.671 26.460 C 318.545 26.383,318.442 26.061,318.442 25.746 C 318.442 25.423,318.342 25.235,318.213 25.315 C 318.087 25.393,317.984 25.259,317.984 25.018 C 317.984 24.777,317.281 23.869,316.422 23.000 C 314.737 21.297,314.892 21.362,310.653 20.581 C 308.189 20.127,304.428 20.778,302.227 22.039 C 300.937 22.777,296.678 25.140,293.929 26.642 C 293.236 27.021,291.690 27.846,290.493 28.476 C 289.296 29.105,287.718 29.966,286.987 30.389 C 286.255 30.811,285.582 31.157,285.490 31.157 C 284.527 31.157,284.536 30.881,284.536 61.261 C 284.536 77.086,284.488 90.034,284.429 90.034 C 284.369 90.034,283.931 89.812,283.455 89.541 C 282.979 89.269,282.176 88.831,281.672 88.567 C 281.168 88.303,280.613 87.952,280.439 87.787 C 280.265 87.621,279.724 87.327,279.237 87.132 C 278.749 86.937,278.351 86.685,278.351 86.573 C 278.351 86.461,278.153 86.369,277.911 86.369 C 277.670 86.369,277.438 86.292,277.396 86.197 C 277.281 85.938,274.968 84.765,274.572 84.765 C 274.382 84.765,274.227 84.662,274.227 84.536 C 274.227 84.410,274.021 84.307,273.769 84.307 C 273.517 84.307,273.310 84.204,273.310 84.078 C 273.310 83.952,273.150 83.849,272.953 83.849 C 272.757 83.849,272.646 83.769,272.706 83.671 C 272.766 83.573,272.257 83.238,271.575 82.927 C 270.892 82.615,270.333 82.282,270.333 82.188 C 270.333 82.093,270.135 82.016,269.893 82.016 C 269.652 82.016,269.420 81.939,269.378 81.844 C 269.282 81.629,268.062 80.885,267.526 80.715 C 267.305 80.645,267.125 80.497,267.125 80.386 C 267.125 80.274,266.919 80.183,266.667 80.183 C 266.415 80.183,266.207 80.106,266.205 80.011 C 266.203 79.917,265.687 79.587,265.059 79.279 C 264.431 78.971,263.918 78.661,263.918 78.590 C 263.918 78.520,263.582 78.317,263.173 78.138 C 262.763 77.960,262.377 77.749,262.314 77.669 C 262.251 77.589,261.735 77.292,261.168 77.009 C 260.601 76.725,259.880 76.346,259.565 76.166 C 259.250 75.985,258.812 75.836,258.591 75.834 C 258.371 75.832,258.190 75.727,258.190 75.601 C 258.190 75.475,258.044 75.372,257.866 75.372 C 257.687 75.372,257.507 75.295,257.465 75.200 C 257.369 74.985,256.149 74.241,255.613 74.071 C 255.392 74.001,255.212 73.853,255.212 73.742 C 255.212 73.631,255.006 73.540,254.754 73.540 C 254.502 73.540,254.296 73.436,254.296 73.310 C 254.296 73.184,254.160 73.081,253.995 73.081 C 253.830 73.081,253.473 72.875,253.203 72.623 C 252.932 72.371,252.602 72.165,252.469 72.165 C 252.235 72.165,251.320 71.710,251.088 71.478 C 250.944 71.334,250.097 70.850,248.912 70.235 C 248.408 69.973,247.944 69.700,247.881 69.628 C 247.818 69.556,247.612 69.428,247.423 69.343 C 247.234 69.258,246.564 68.893,245.934 68.531 C 245.304 68.169,243.912 67.431,242.841 66.891 C 241.770 66.351,240.859 65.822,240.817 65.715 C 240.775 65.608,240.543 65.521,240.302 65.521 C 240.060 65.521,239.863 65.418,239.863 65.292 C 239.863 65.166,239.656 65.063,239.404 65.063 C 239.152 65.063,238.946 64.960,238.946 64.834 C 238.946 64.708,238.785 64.605,238.589 64.605 C 238.393 64.605,238.296 64.502,238.373 64.376 C 238.451 64.250,238.329 64.144,238.101 64.142 C 237.873 64.139,237.428 63.935,237.113 63.688 C 236.798 63.442,236.412 63.238,236.254 63.235 C 236.097 63.233,235.968 63.127,235.968 63.001 C 235.968 62.875,235.762 62.772,235.510 62.772 C 235.258 62.772,235.052 62.669,235.052 62.543 C 235.052 62.417,234.923 62.314,234.765 62.314 C 234.490 62.313,233.219 61.338,233.219 61.127 C 233.219 61.071,233.580 60.883,234.021 60.710 C 234.563 60.498,234.828 60.242,234.841 59.923 C 234.850 59.663,234.911 59.579,234.974 59.737 C 235.038 59.894,235.190 60.023,235.313 60.023 C 235.436 60.023,235.462 59.902,235.371 59.755 C 235.259 59.574,235.331 59.535,235.593 59.636 C 235.833 59.728,236.122 59.619,236.352 59.351 C 236.556 59.113,236.862 58.971,237.033 59.037 C 237.203 59.102,237.342 59.041,237.342 58.902 C 237.342 58.762,237.517 58.648,237.730 58.648 C 238.068 58.648,238.060 58.605,237.673 58.312 C 237.158 57.923,236.793 57.857,236.999 58.190 C 237.077 58.316,236.980 58.419,236.783 58.419 C 236.587 58.419,236.426 58.257,236.426 58.059 C 236.426 57.596,235.875 57.045,235.412 57.045 C 235.214 57.045,235.052 56.942,235.052 56.816 C 235.052 56.690,234.868 56.586,234.644 56.586 C 234.420 56.586,234.088 56.380,233.906 56.128 C 233.724 55.876,233.415 55.670,233.219 55.670 C 233.022 55.670,232.713 55.464,232.532 55.212 C 232.350 54.960,232.018 54.754,231.794 54.754 C 231.569 54.754,231.386 54.651,231.386 54.525 C 231.386 54.399,231.187 54.296,230.943 54.296 C 230.700 54.296,230.435 54.089,230.355 53.837 C 230.275 53.585,230.010 53.379,229.767 53.379 C 229.523 53.379,229.324 53.276,229.324 53.150 C 229.324 53.024,229.141 52.921,228.917 52.921 C 228.692 52.921,228.360 52.715,228.179 52.463 C 227.997 52.211,227.688 52.005,227.491 52.005 C 227.295 52.005,226.986 51.798,226.804 51.546 C 226.622 51.294,226.290 51.088,226.066 51.088 C 225.842 51.088,225.659 50.985,225.659 50.859 C 225.659 50.733,225.490 50.630,225.285 50.630 C 225.079 50.630,224.744 50.440,224.540 50.208 C 224.336 49.977,223.886 49.717,223.540 49.631 C 223.193 49.546,222.910 49.375,222.910 49.251 C 222.910 49.127,222.703 49.026,222.451 49.026 C 222.199 49.026,221.993 48.923,221.993 48.797 C 221.993 48.671,221.861 48.568,221.700 48.568 C 221.539 48.568,221.258 48.362,221.077 48.110 C 220.895 47.858,220.586 47.652,220.389 47.652 C 220.193 47.652,219.884 47.446,219.702 47.194 C 219.521 46.942,219.189 46.735,218.964 46.735 C 218.740 46.735,218.557 46.632,218.557 46.506 C 218.557 46.380,218.373 46.277,218.149 46.277 C 217.925 46.277,217.593 46.071,217.411 45.819 C 217.230 45.567,216.920 45.361,216.724 45.361 C 216.528 45.361,216.218 45.155,216.037 44.903 C 215.855 44.651,215.523 44.444,215.299 44.444 C 215.075 44.444,214.891 44.341,214.891 44.215 C 214.891 44.089,214.708 43.986,214.484 43.986 C 214.259 43.986,213.927 43.780,213.746 43.528 C 213.564 43.276,213.306 43.070,213.173 43.070 C 213.040 43.070,212.782 42.864,212.600 42.612 C 212.419 42.360,212.087 42.153,211.862 42.153 C 211.638 42.153,211.455 42.050,211.455 41.924 C 211.455 41.798,211.286 41.695,211.081 41.695 C 210.875 41.695,210.540 41.506,210.336 41.274 C 210.132 41.042,209.682 40.782,209.336 40.697 C 208.989 40.611,208.706 40.440,208.706 40.316 C 208.706 40.193,208.499 40.092,208.247 40.092 C 207.995 40.092,207.789 39.989,207.789 39.863 C 207.789 39.737,207.606 39.633,207.382 39.633 C 207.157 39.633,206.825 39.427,206.644 39.175 C 206.462 38.923,206.130 38.717,205.906 38.717 C 205.682 38.717,205.498 38.614,205.498 38.488 C 205.498 38.362,205.303 38.259,205.065 38.259 C 204.418 38.259,204.279 37.628,204.880 37.423 C 205.157 37.329,205.469 37.275,205.573 37.303 C 205.676 37.331,205.703 37.260,205.632 37.145 C 205.561 37.030,205.711 36.882,205.966 36.816 C 206.220 36.749,206.413 36.608,206.394 36.503 C 206.316 36.059,206.436 35.875,206.617 36.161 C 206.891 36.594,207.789 36.019,207.789 35.409 C 207.789 35.060,207.850 35.021,208.064 35.235 C 208.489 35.660,208.833 35.561,208.875 35.003 C 208.896 34.725,209.150 34.304,209.440 34.069 C 209.729 33.833,209.296 33.998,208.477 34.436 C 207.233 35.101,207.000 35.317,207.065 35.751 C 207.138 36.234,207.116 36.244,206.766 35.894 C 206.419 35.547,206.343 35.546,205.829 35.883 C 205.197 36.297,205.099 36.477,205.613 36.280 C 205.803 36.207,205.956 36.273,205.956 36.428 C 205.956 36.602,205.743 36.668,205.395 36.601 C 205.043 36.534,204.788 36.615,204.710 36.818 C 204.641 36.997,204.489 37.083,204.372 37.010 C 204.106 36.846,202.978 37.341,202.978 37.622 C 202.978 37.735,203.097 37.754,203.243 37.664 C 203.394 37.571,203.445 37.601,203.363 37.735 C 203.283 37.863,202.958 37.919,202.640 37.858 C 202.301 37.793,202.062 37.853,202.062 38.003 C 202.062 38.144,201.856 38.259,201.604 38.259 C 201.352 38.259,201.145 38.362,201.145 38.488 C 201.145 38.614,200.980 38.717,200.777 38.717 C 200.550 38.717,200.458 38.844,200.537 39.049 C 200.621 39.269,200.554 39.339,200.338 39.256 C 200.159 39.187,199.846 39.296,199.644 39.499 C 199.441 39.701,199.181 39.808,199.065 39.737 C 198.949 39.665,198.855 39.716,198.855 39.849 C 198.855 39.982,198.648 40.092,198.396 40.092 C 198.144 40.092,197.938 40.172,197.938 40.271 C 197.938 41.190,194.075 40.364,193.624 39.347 C 193.582 39.253,193.401 39.175,193.223 39.175 C 193.044 39.175,192.898 39.072,192.898 38.946 C 192.898 38.820,192.743 38.717,192.554 38.717 C 192.365 38.717,192.211 38.614,192.211 38.488 C 192.211 38.362,192.005 38.259,191.753 38.259 C 191.501 38.259,191.294 38.156,191.294 38.030 C 191.294 37.904,191.088 37.801,190.836 37.801 C 190.584 37.801,190.378 37.698,190.378 37.572 C 190.378 37.446,190.219 37.342,190.025 37.342 C 189.831 37.342,189.450 37.136,189.180 36.884 C 188.909 36.632,188.553 36.426,188.388 36.426 C 188.222 36.426,188.087 36.323,188.087 36.197 C 188.087 36.071,187.881 35.968,187.629 35.968 C 187.377 35.968,187.171 35.865,187.171 35.739 C 187.171 35.613,186.964 35.510,186.712 35.510 C 186.460 35.510,186.254 35.407,186.254 35.281 C 186.254 35.155,186.100 35.052,185.911 35.052 C 185.722 35.052,185.567 34.948,185.567 34.822 C 185.567 34.696,185.412 34.593,185.223 34.593 C 185.034 34.593,184.880 34.511,184.880 34.410 C 184.880 34.310,184.519 34.097,184.078 33.937 C 183.637 33.778,183.276 33.551,183.276 33.433 C 183.276 33.315,183.070 33.219,182.818 33.219 C 182.566 33.219,182.360 33.099,182.360 32.952 C 182.360 32.805,182.300 32.744,182.226 32.817 C 182.153 32.891,181.715 32.694,181.253 32.380 C 180.791 32.067,180.129 31.753,179.782 31.684 C 179.436 31.615,179.152 31.468,179.152 31.357 C 179.152 31.247,178.946 31.157,178.694 31.157 C 178.442 31.157,178.236 31.054,178.236 30.928 C 178.236 30.802,178.075 30.699,177.879 30.699 C 177.682 30.699,177.585 30.596,177.663 30.470 C 177.741 30.344,177.593 30.241,177.333 30.241 C 177.074 30.241,176.861 30.157,176.861 30.054 C 176.861 29.952,176.501 29.726,176.060 29.553 C 175.619 29.380,175.258 29.155,175.258 29.052 C 175.258 28.950,175.060 28.866,174.819 28.866 C 174.577 28.866,174.345 28.789,174.303 28.694 C 174.208 28.479,172.987 27.735,172.451 27.565 C 172.231 27.495,172.050 27.347,172.050 27.236 C 172.050 27.124,171.853 27.033,171.611 27.033 C 171.370 27.033,171.138 26.956,171.096 26.861 C 171.054 26.767,170.530 26.441,169.931 26.138 C 169.333 25.835,168.843 25.500,168.843 25.394 C 168.843 25.287,168.656 25.200,168.428 25.200 C 168.200 25.200,167.813 25.020,167.569 24.800 C 166.950 24.241,164.849 23.139,164.402 23.139 C 164.199 23.139,164.032 23.036,164.032 22.910 C 164.032 22.784,163.834 22.680,163.593 22.680 C 163.351 22.680,163.120 22.603,163.078 22.509 C 162.982 22.294,161.762 21.550,161.226 21.380 C 161.005 21.310,160.825 21.161,160.825 21.050 C 160.825 20.939,160.612 20.848,160.353 20.848 C 160.094 20.848,159.945 20.745,160.023 20.619 C 160.101 20.493,159.999 20.389,159.798 20.389 C 159.596 20.389,159.210 20.183,158.939 19.931 C 158.669 19.679,158.261 19.473,158.032 19.473 C 157.804 19.473,157.617 19.370,157.617 19.244 C 157.617 19.118,157.463 19.015,157.274 19.015 C 157.085 19.015,156.930 18.912,156.930 18.786 C 156.930 18.660,156.724 18.557,156.472 18.557 C 156.220 18.557,156.013 18.479,156.012 18.385 C 156.011 18.290,155.779 18.100,155.496 17.961 C 154.530 17.486,152.921 16.610,152.806 16.495 C 152.692 16.381,151.857 15.919,149.737 14.797 C 149.120 14.471,148.475 14.204,148.305 14.204 C 148.135 14.204,147.995 14.113,147.995 14.003 C 147.995 13.892,147.686 13.673,147.308 13.517 C 146.930 13.360,146.621 13.141,146.621 13.031 C 146.621 12.920,146.415 12.829,146.163 12.829 C 145.911 12.829,145.704 12.726,145.704 12.600 C 145.704 12.474,145.498 12.371,145.246 12.371 C 144.994 12.371,144.788 12.268,144.788 12.142 C 144.788 12.016,144.582 11.913,144.330 11.913 C 144.078 11.913,143.872 11.810,143.872 11.684 C 143.872 11.558,143.711 11.455,143.515 11.455 C 143.318 11.455,143.221 11.352,143.299 11.226 C 143.377 11.100,143.228 10.997,142.969 10.997 C 142.709 10.997,142.497 10.893,142.497 10.767 C 142.497 10.641,142.342 10.538,142.153 10.538 C 141.964 10.538,141.810 10.435,141.810 10.309 C 141.810 10.183,141.648 10.080,141.450 10.080 C 141.252 10.080,140.641 9.771,140.092 9.393 C 139.542 9.015,138.982 8.706,138.848 8.706 C 138.713 8.706,138.603 8.585,138.603 8.438 C 138.603 8.291,138.537 8.237,138.456 8.318 C 138.327 8.446,137.083 7.883,136.770 7.555 C 136.707 7.489,135.985 7.085,135.166 6.657 C 134.347 6.229,133.643 5.793,133.601 5.688 C 133.559 5.584,133.351 5.498,133.138 5.498 C 132.926 5.498,132.393 5.258,131.955 4.964 C 131.516 4.670,130.822 4.284,130.412 4.106 C 130.003 3.928,129.668 3.705,129.668 3.610 C 129.668 3.514,129.462 3.436,129.210 3.436 C 128.958 3.436,128.751 3.359,128.750 3.265 C 128.748 3.059,127.638 2.520,127.217 2.520 C 127.053 2.520,126.919 2.417,126.919 2.291 C 126.919 2.165,126.712 2.062,126.460 2.062 C 126.208 2.062,126.002 1.959,126.002 1.833 C 126.002 1.707,125.813 1.604,125.582 1.604 C 125.351 1.604,125.092 1.533,125.005 1.447 C 124.761 1.202,123.192 0.695,122.669 0.691 C 122.411 0.689,122.092 0.580,121.962 0.450 C 121.710 0.197,116.247 -0.024,114.605 0.151 M242.554 15.251 C 242.208 15.439,241.933 15.719,241.942 15.872 C 241.956 16.084,241.989 16.082,242.076 15.865 C 242.140 15.707,242.325 15.578,242.488 15.578 C 242.651 15.578,242.913 15.424,243.070 15.235 C 243.419 14.814,243.356 14.816,242.554 15.251 M225.915 24.659 C 225.641 24.969,225.653 25.006,226.010 24.937 C 226.237 24.893,226.465 24.728,226.518 24.570 C 226.650 24.175,226.298 24.227,225.915 24.659 M225.200 24.971 C 225.200 25.097,225.057 25.200,224.881 25.200 C 224.706 25.200,224.503 25.355,224.430 25.545 C 224.317 25.838,224.382 25.834,224.864 25.519 C 225.366 25.189,225.626 24.742,225.315 24.742 C 225.252 24.742,225.200 24.845,225.200 24.971 M219.573 28.155 C 219.641 28.266,219.466 28.426,219.184 28.512 C 218.883 28.603,218.787 28.716,218.952 28.784 C 219.106 28.848,219.446 28.751,219.707 28.568 C 220.115 28.282,220.130 28.216,219.815 28.095 C 219.614 28.018,219.505 28.045,219.573 28.155 M216.075 30.122 C 215.327 30.534,214.950 30.928,215.304 30.928 C 215.455 30.928,215.578 30.819,215.578 30.685 C 215.578 30.552,215.680 30.505,215.805 30.582 C 215.929 30.659,216.258 30.511,216.535 30.252 C 217.096 29.730,216.891 29.672,216.075 30.122 M213.116 31.777 C 212.832 31.831,212.600 31.972,212.600 32.089 C 212.600 32.398,212.906 32.351,213.416 31.966 C 213.660 31.781,213.809 31.640,213.746 31.654 C 213.683 31.667,213.399 31.722,213.116 31.777 M210.710 33.141 C 210.364 33.324,210.082 33.596,210.084 33.747 C 210.086 33.913,210.175 33.885,210.309 33.677 C 210.433 33.485,210.533 33.450,210.535 33.598 C 210.537 33.752,210.735 33.812,211.006 33.741 C 211.263 33.674,211.418 33.564,211.351 33.497 C 211.284 33.430,211.344 33.237,211.485 33.068 C 211.803 32.684,211.528 32.710,210.710 33.141 M264.501 43.434 C 264.027 43.781,264.216 43.832,264.933 43.551 C 265.177 43.456,265.279 43.318,265.160 43.244 C 265.041 43.171,264.744 43.256,264.501 43.434 M263.331 44.094 C 262.954 44.379,262.944 44.431,263.263 44.437 C 263.470 44.441,263.699 44.290,263.771 44.101 C 263.935 43.674,263.887 43.673,263.331 44.094 M260.256 45.832 C 259.817 46.077,259.610 46.275,259.797 46.272 C 259.984 46.269,260.395 46.065,260.710 45.819 C 261.430 45.256,261.281 45.261,260.256 45.832 M256.921 47.667 C 256.678 48.060,256.895 48.098,257.375 47.748 C 257.747 47.476,257.758 47.423,257.446 47.423 C 257.240 47.423,257.004 47.533,256.921 47.667 M256.175 48.120 C 255.998 48.404,255.983 48.568,256.134 48.568 C 256.265 48.568,256.433 48.409,256.507 48.215 C 256.714 47.677,256.491 47.614,256.175 48.120 M253.494 49.485 C 253.416 49.611,253.507 49.714,253.696 49.714 C 253.885 49.714,254.103 49.611,254.181 49.485 C 254.259 49.359,254.168 49.255,253.979 49.255 C 253.790 49.255,253.572 49.359,253.494 49.485 M250.916 50.866 C 250.633 50.980,250.401 51.170,250.401 51.288 C 250.401 51.409,250.652 51.387,250.972 51.238 C 251.286 51.093,251.544 50.896,251.545 50.802 C 251.547 50.603,251.581 50.599,250.916 50.866 M247.537 52.693 C 247.142 52.864,247.165 52.886,247.709 52.856 C 248.056 52.837,248.339 52.740,248.339 52.642 C 248.339 52.422,248.134 52.435,247.537 52.693 M245.498 53.873 C 245.610 54.055,245.506 54.098,245.168 54.009 C 244.896 53.938,244.606 53.990,244.524 54.123 C 244.428 54.278,244.491 54.300,244.695 54.183 C 244.960 54.032,244.965 54.055,244.721 54.317 C 244.471 54.587,244.396 54.587,244.231 54.321 C 244.081 54.078,243.998 54.125,243.872 54.525 C 243.761 54.875,243.652 54.954,243.536 54.767 C 243.348 54.463,242.612 55.035,242.612 55.485 C 242.612 55.634,242.480 55.617,242.268 55.441 C 242.031 55.244,241.924 55.235,241.924 55.413 C 241.924 55.554,241.767 55.670,241.574 55.670 C 241.381 55.670,241.167 55.815,241.100 55.991 C 241.032 56.168,240.806 56.287,240.598 56.257 C 240.391 56.226,240.029 56.417,239.795 56.680 C 239.561 56.944,239.447 57.005,239.541 56.816 C 239.657 56.583,239.553 56.611,239.220 56.903 C 238.397 57.625,238.946 57.911,240.019 57.320 C 240.295 57.169,240.681 57.045,240.878 57.045 C 241.076 57.045,241.237 56.942,241.237 56.816 C 241.237 56.690,241.372 56.586,241.538 56.586 C 241.703 56.586,242.038 56.406,242.282 56.186 C 242.772 55.744,244.597 54.754,244.922 54.754 C 245.034 54.754,245.329 54.581,245.576 54.369 C 246.018 53.991,246.011 53.608,245.563 53.608 C 245.437 53.608,245.408 53.728,245.498 53.873 M237.929 57.839 C 238.511 58.279,238.851 58.284,238.488 57.847 C 238.331 57.658,238.041 57.503,237.843 57.503 C 237.556 57.503,237.573 57.570,237.929 57.839 M304.238 107.280 C 303.522 107.614,303.334 107.876,303.475 108.341 C 303.552 108.594,303.503 108.576,303.316 108.284 C 303.061 107.885,303.012 107.895,302.404 108.478 C 302.050 108.817,301.674 109.110,301.568 109.129 C 301.462 109.148,301.388 109.290,301.405 109.444 C 301.428 109.645,301.319 109.661,301.018 109.501 C 300.744 109.354,300.552 109.356,300.459 109.507 C 300.380 109.633,300.400 109.742,300.502 109.749 C 300.604 109.757,300.334 109.885,299.903 110.036 C 299.346 110.230,299.108 110.459,299.082 110.825 C 299.033 111.514,299.382 111.484,299.558 110.785 C 299.658 110.386,299.825 110.254,300.147 110.316 C 300.674 110.417,302.026 109.663,301.775 109.408 C 301.681 109.313,301.758 109.259,301.947 109.289 C 302.413 109.363,303.780 108.826,303.780 108.569 C 303.780 108.455,303.986 108.362,304.238 108.362 C 304.490 108.362,304.696 108.271,304.696 108.160 C 304.696 108.048,304.913 107.900,305.179 107.831 C 305.699 107.695,305.668 107.130,305.136 107.057 C 304.957 107.033,304.553 107.133,304.238 107.280 " stroke="none" fill="#178ad1" fill-rule="evenodd"></path><path id="path2" d="M272.034 0.943 C 271.965 1.054,271.399 1.145,270.777 1.145 C 270.154 1.145,269.645 1.249,269.645 1.375 C 269.645 1.501,269.290 1.604,268.857 1.604 C 268.423 1.604,268.005 1.707,267.927 1.833 C 267.849 1.959,267.585 2.062,267.340 2.062 C 267.096 2.062,266.896 2.165,266.896 2.291 C 266.896 2.417,266.710 2.520,266.483 2.520 C 265.971 2.520,264.838 3.032,264.836 3.265 C 264.835 3.359,264.679 3.436,264.490 3.436 C 264.301 3.436,264.147 3.533,264.147 3.650 C 264.147 3.768,263.923 3.935,263.650 4.021 C 263.184 4.169,263.198 4.197,263.870 4.480 C 264.263 4.645,265.203 5.200,265.957 5.712 C 266.712 6.225,267.380 6.644,267.442 6.644 C 267.558 6.644,270.798 8.653,273.594 10.458 C 274.443 11.006,275.242 11.455,275.370 11.455 C 275.497 11.455,275.601 11.558,275.601 11.684 C 275.601 11.810,275.709 11.913,275.841 11.913 C 275.973 11.913,276.844 12.428,277.778 13.058 C 278.711 13.688,279.535 14.204,279.608 14.204 C 279.680 14.204,280.432 14.650,281.279 15.195 C 282.125 15.741,283.952 16.888,285.338 17.746 C 286.724 18.603,288.707 19.858,289.746 20.534 C 290.784 21.211,291.738 21.764,291.865 21.764 C 291.992 21.764,292.096 21.867,292.096 21.993 C 292.096 22.119,292.207 22.222,292.341 22.222 C 292.476 22.222,293.018 22.519,293.545 22.882 C 296.470 24.894,296.114 24.902,300.387 22.731 C 305.324 20.224,308.043 19.676,311.455 20.499 C 313.428 20.976,313.705 20.960,313.349 20.389 C 313.192 20.137,312.881 19.931,312.660 19.931 C 312.438 19.931,312.257 19.828,312.257 19.702 C 312.257 19.576,312.051 19.473,311.800 19.473 C 311.549 19.473,311.215 19.267,311.058 19.015 C 310.901 18.763,310.590 18.557,310.369 18.557 C 310.147 18.557,309.966 18.454,309.966 18.328 C 309.966 18.202,309.807 18.099,309.612 18.099 C 309.418 18.099,309.056 17.909,308.807 17.677 C 308.558 17.445,308.072 17.110,307.728 16.933 C 307.384 16.755,307.050 16.551,306.987 16.478 C 306.924 16.406,306.409 16.096,305.842 15.790 C 305.275 15.485,304.759 15.183,304.696 15.120 C 304.422 14.846,303.109 14.204,302.822 14.204 C 302.648 14.204,302.358 13.998,302.176 13.746 C 301.995 13.494,301.663 13.288,301.439 13.288 C 301.214 13.288,301.031 13.184,301.031 13.058 C 301.031 12.932,300.863 12.829,300.657 12.829 C 300.451 12.829,300.116 12.641,299.912 12.411 C 299.709 12.181,299.207 11.847,298.797 11.668 C 298.388 11.489,298.053 11.265,298.053 11.170 C 298.053 11.074,297.898 10.997,297.709 10.997 C 297.520 10.997,297.365 10.893,297.365 10.767 C 297.365 10.641,297.211 10.538,297.022 10.538 C 296.833 10.538,296.678 10.435,296.678 10.309 C 296.678 10.183,296.495 10.080,296.271 10.080 C 296.046 10.080,295.714 9.874,295.533 9.622 C 295.351 9.370,295.019 9.164,294.795 9.164 C 294.571 9.164,294.387 9.061,294.387 8.935 C 294.387 8.809,294.204 8.706,293.980 8.706 C 293.755 8.706,293.423 8.499,293.242 8.247 C 293.060 7.995,292.778 7.789,292.615 7.789 C 292.265 7.789,291.485 7.363,290.901 6.852 C 290.672 6.652,290.203 6.343,289.859 6.165 C 289.514 5.987,289.096 5.713,288.930 5.556 C 288.763 5.398,288.428 5.269,288.185 5.269 C 287.942 5.269,287.743 5.166,287.743 5.040 C 287.743 4.914,287.608 4.811,287.443 4.811 C 287.278 4.811,286.921 4.605,286.651 4.353 C 286.380 4.101,286.072 3.895,285.966 3.895 C 285.626 3.895,284.540 3.328,284.538 3.150 C 284.537 3.056,284.330 2.978,284.078 2.978 C 283.826 2.978,283.620 2.875,283.620 2.749 C 283.620 2.623,283.304 2.520,282.919 2.520 C 282.510 2.520,282.277 2.425,282.360 2.291 C 282.440 2.161,282.248 2.062,281.915 2.062 C 281.593 2.062,281.329 1.959,281.329 1.833 C 281.329 1.707,280.968 1.604,280.527 1.604 C 280.086 1.604,279.725 1.501,279.725 1.375 C 279.725 1.249,279.216 1.145,278.593 1.145 C 277.971 1.145,277.395 1.038,277.313 0.906 C 277.132 0.613,272.216 0.648,272.034 0.943 M109.976 1.585 C 109.835 1.847,109.518 2.062,109.270 2.062 C 109.023 2.062,108.820 2.165,108.820 2.291 C 108.820 2.417,108.637 2.520,108.413 2.520 C 108.188 2.520,107.856 2.726,107.675 2.978 C 107.493 3.230,107.161 3.436,106.937 3.436 C 106.713 3.436,106.529 3.552,106.529 3.692 C 106.529 3.835,106.327 3.895,106.071 3.828 C 105.773 3.750,105.613 3.821,105.613 4.031 C 105.613 4.208,105.407 4.353,105.155 4.353 C 104.903 4.353,104.696 4.456,104.696 4.582 C 104.696 4.708,104.439 4.811,104.124 4.811 C 103.809 4.811,103.551 4.914,103.551 5.040 C 103.551 5.166,103.352 5.269,103.109 5.269 C 102.866 5.269,102.513 5.424,102.324 5.613 C 102.135 5.802,101.854 5.956,101.699 5.956 C 101.544 5.956,101.080 6.214,100.667 6.529 C 100.254 6.844,99.813 7.102,99.688 7.102 C 99.563 7.102,99.309 7.253,99.125 7.437 C 98.940 7.622,98.658 7.802,98.497 7.838 C 98.337 7.874,98.016 8.084,97.785 8.305 C 97.554 8.525,97.211 8.706,97.022 8.706 C 96.833 8.706,96.678 8.809,96.678 8.935 C 96.678 9.061,96.519 9.164,96.325 9.164 C 96.131 9.164,95.756 9.365,95.492 9.611 C 95.228 9.856,94.680 10.215,94.273 10.408 C 93.867 10.601,93.404 10.916,93.245 11.107 C 93.086 11.298,92.814 11.455,92.641 11.455 C 92.467 11.455,92.325 11.558,92.325 11.684 C 92.325 11.810,92.142 11.913,91.918 11.913 C 91.694 11.913,91.361 12.119,91.180 12.371 C 90.998 12.623,90.666 12.829,90.442 12.829 C 90.218 12.829,90.034 12.932,90.034 13.058 C 90.034 13.184,89.899 13.288,89.734 13.288 C 89.569 13.288,89.217 13.490,88.952 13.736 C 88.687 13.983,88.203 14.252,87.877 14.334 C 87.552 14.416,87.285 14.556,87.285 14.646 C 87.285 14.736,86.769 15.043,86.138 15.328 C 85.507 15.613,85.049 15.941,85.121 16.056 C 85.238 16.246,84.921 16.363,84.479 16.293 C 84.384 16.278,84.307 16.369,84.307 16.495 C 84.307 16.621,84.148 16.724,83.954 16.724 C 83.759 16.724,83.379 16.930,83.109 17.182 C 82.838 17.434,82.482 17.640,82.316 17.640 C 82.151 17.640,82.016 17.743,82.016 17.869 C 82.016 17.995,81.810 18.099,81.558 18.099 C 81.306 18.099,81.100 18.189,81.100 18.300 C 81.100 18.411,80.790 18.629,80.412 18.786 C 80.034 18.942,79.725 19.161,79.725 19.272 C 79.725 19.382,79.542 19.473,79.317 19.473 C 79.093 19.473,78.761 19.679,78.580 19.931 C 78.398 20.183,78.162 20.389,78.054 20.389 C 77.947 20.389,77.729 20.518,77.570 20.676 C 77.411 20.833,77.006 21.167,76.670 21.417 C 76.334 21.668,76.060 21.998,76.060 22.151 C 76.060 22.304,75.926 22.511,75.762 22.612 C 75.302 22.894,74.456 24.196,74.456 24.619 C 74.456 24.828,74.353 24.935,74.227 24.857 C 74.101 24.779,73.998 24.927,73.998 25.187 C 73.998 25.446,73.895 25.659,73.769 25.659 C 73.643 25.659,73.540 25.865,73.540 26.117 C 73.540 26.369,73.458 26.575,73.359 26.575 C 73.260 26.575,73.153 26.908,73.122 27.316 C 73.091 27.723,72.966 28.156,72.845 28.278 C 72.537 28.585,72.545 51.242,72.852 51.432 C 72.978 51.510,73.092 52.109,73.104 52.763 C 73.117 53.417,73.197 54.202,73.282 54.508 L 73.438 55.064 74.051 54.451 C 74.388 54.113,74.749 53.837,74.853 53.837 C 74.957 53.837,75.191 53.631,75.372 53.379 C 75.554 53.127,75.886 52.921,76.110 52.921 C 76.334 52.921,76.518 52.818,76.518 52.692 C 76.518 52.566,76.701 52.463,76.925 52.463 C 77.150 52.463,77.482 52.257,77.663 52.005 C 77.845 51.753,78.177 51.546,78.401 51.546 C 78.625 51.546,78.809 51.443,78.809 51.317 C 78.809 51.191,78.992 51.088,79.216 51.088 C 79.441 51.088,79.773 50.882,79.954 50.630 C 80.136 50.378,80.424 50.172,80.594 50.172 C 80.764 50.172,81.058 50.017,81.247 49.828 C 81.436 49.639,81.789 49.485,82.032 49.485 C 82.275 49.485,82.474 49.381,82.474 49.255 C 82.474 49.129,82.673 49.026,82.917 49.026 C 83.160 49.026,83.425 48.820,83.505 48.568 C 83.585 48.316,83.850 48.110,84.093 48.110 C 84.337 48.110,84.536 48.007,84.536 47.881 C 84.536 47.755,84.720 47.652,84.944 47.652 C 85.168 47.652,85.500 47.446,85.682 47.194 C 85.863 46.942,86.195 46.735,86.419 46.735 C 86.644 46.735,86.827 46.632,86.827 46.506 C 86.827 46.380,87.010 46.277,87.235 46.277 C 87.459 46.277,87.791 46.071,87.973 45.819 C 88.154 45.567,88.463 45.361,88.660 45.361 C 88.856 45.361,89.165 45.155,89.347 44.903 C 89.529 44.651,89.861 44.444,90.085 44.444 C 90.309 44.444,90.493 44.341,90.493 44.215 C 90.493 44.089,90.676 43.986,90.900 43.986 C 91.124 43.986,91.456 43.780,91.638 43.528 C 91.820 43.276,92.100 43.070,92.261 43.070 C 92.423 43.070,92.554 42.967,92.554 42.841 C 92.554 42.715,92.738 42.612,92.962 42.612 C 93.186 42.612,93.518 42.405,93.700 42.153 C 93.882 41.901,94.176 41.695,94.354 41.695 C 94.532 41.695,94.844 41.503,95.048 41.268 C 95.252 41.033,95.779 40.761,96.220 40.664 C 96.661 40.568,97.188 40.296,97.392 40.061 C 97.596 39.826,97.931 39.633,98.137 39.633 C 98.343 39.633,98.511 39.530,98.511 39.404 C 98.511 39.278,98.694 39.175,98.918 39.175 C 99.143 39.175,99.475 38.969,99.656 38.717 C 99.838 38.465,100.170 38.259,100.394 38.259 C 100.618 38.259,100.802 38.156,100.802 38.030 C 100.802 37.904,100.934 37.801,101.095 37.801 C 101.256 37.801,101.537 37.595,101.718 37.342 C 101.900 37.090,102.209 36.884,102.405 36.884 C 102.602 36.884,102.911 36.678,103.093 36.426 C 103.274 36.174,103.606 35.968,103.831 35.968 C 104.055 35.968,104.238 35.865,104.238 35.739 C 104.238 35.613,104.422 35.510,104.646 35.510 C 104.870 35.510,105.202 35.304,105.384 35.052 C 105.565 34.800,105.897 34.593,106.122 34.593 C 106.449 34.593,106.537 34.380,106.570 33.505 C 106.604 32.572,106.631 32.645,106.758 34.021 L 106.906 35.624 106.947 34.097 C 106.969 33.256,107.045 32.419,107.115 32.236 C 107.185 32.053,107.082 31.743,106.886 31.546 C 106.389 31.050,106.352 11.561,106.843 9.049 C 107.401 6.199,108.114 4.803,109.973 2.927 C 110.988 1.902,111.024 1.825,110.638 1.476 C 110.262 1.135,110.212 1.143,109.976 1.585 " stroke="none" fill="#82c0e9" fill-rule="evenodd"></path><path id="path3" d="M112.486 0.916 C 112.486 1.042,112.342 1.145,112.167 1.145 C 111.991 1.145,111.788 1.300,111.716 1.489 C 111.643 1.678,111.684 1.833,111.806 1.833 C 111.928 1.833,112.027 1.737,112.027 1.619 C 112.027 1.502,112.234 1.340,112.486 1.260 C 112.956 1.111,113.125 0.687,112.715 0.687 C 112.589 0.687,112.486 0.790,112.486 0.916 M110.524 2.577 L 109.851 3.322 110.596 2.649 C 111.005 2.279,111.340 1.944,111.340 1.904 C 111.340 1.727,111.151 1.883,110.524 2.577 M259.084 6.125 C 258.781 6.347,258.121 6.734,257.617 6.985 C 257.113 7.236,256.649 7.496,256.586 7.564 C 256.523 7.631,255.956 7.941,255.326 8.253 C 254.696 8.565,254.129 8.879,254.066 8.952 C 254.003 9.024,253.488 9.333,252.921 9.639 C 252.354 9.945,251.838 10.246,251.775 10.309 C 251.497 10.588,250.605 10.997,250.276 10.997 C 250.078 10.997,249.979 11.100,250.057 11.226 C 250.135 11.352,249.987 11.455,249.727 11.455 C 249.468 11.455,249.255 11.558,249.255 11.684 C 249.255 11.810,249.101 11.913,248.912 11.913 C 248.723 11.913,248.568 12.016,248.568 12.142 C 248.568 12.268,248.409 12.371,248.215 12.371 C 248.021 12.371,247.640 12.577,247.370 12.829 C 247.099 13.081,246.691 13.288,246.463 13.288 C 246.235 13.288,246.048 13.391,246.048 13.517 C 246.048 13.643,245.938 13.746,245.803 13.746 C 245.668 13.746,245.402 13.901,245.211 14.091 C 245.021 14.282,244.771 14.379,244.655 14.307 C 244.539 14.235,244.444 14.292,244.444 14.433 C 244.444 14.574,244.350 14.631,244.235 14.560 C 244.119 14.488,243.718 14.688,243.343 15.004 C 242.967 15.320,242.546 15.578,242.407 15.578 C 242.267 15.578,242.153 15.682,242.153 15.808 C 242.153 15.934,242.076 16.013,241.982 15.984 C 241.830 15.937,239.374 17.242,237.457 18.388 C 237.079 18.613,236.589 18.859,236.369 18.933 C 236.148 19.008,235.968 19.159,235.968 19.271 C 235.968 19.382,235.693 19.473,235.357 19.473 C 235.021 19.473,234.813 19.540,234.895 19.622 C 235.069 19.796,234.008 20.389,233.523 20.389 C 233.341 20.389,233.255 20.493,233.333 20.619 C 233.411 20.745,233.310 20.848,233.108 20.848 C 232.906 20.848,232.520 21.054,232.250 21.306 C 231.979 21.558,231.584 21.764,231.371 21.764 C 231.158 21.764,230.851 21.924,230.689 22.119 C 230.397 22.471,228.714 23.327,228.314 23.327 C 228.199 23.327,228.014 23.491,227.902 23.691 C 227.789 23.891,227.552 24.055,227.374 24.055 C 227.197 24.055,226.849 24.272,226.601 24.538 C 226.354 24.804,226.024 24.979,225.868 24.927 C 225.712 24.875,225.336 25.063,225.031 25.346 C 224.726 25.628,224.326 25.802,224.142 25.731 C 223.946 25.656,223.835 25.720,223.874 25.886 C 223.910 26.043,223.762 26.201,223.544 26.237 C 223.326 26.274,222.984 26.468,222.783 26.669 C 222.453 26.999,222.137 27.120,221.734 27.069 C 221.655 27.060,221.407 27.253,221.183 27.501 C 220.960 27.748,220.541 27.950,220.253 27.950 C 219.965 27.950,219.666 28.052,219.589 28.176 C 219.506 28.310,219.618 28.344,219.862 28.260 C 220.215 28.138,220.209 28.170,219.817 28.484 C 219.565 28.686,219.178 28.855,218.958 28.859 C 218.737 28.863,218.557 28.969,218.557 29.095 C 218.557 29.221,218.392 29.324,218.191 29.324 C 217.826 29.324,216.510 30.145,216.234 30.545 C 216.154 30.662,215.973 30.687,215.833 30.600 C 215.693 30.513,215.578 30.560,215.578 30.704 C 215.578 30.848,215.452 30.924,215.297 30.872 C 215.142 30.820,214.858 30.971,214.667 31.207 C 214.475 31.443,214.094 31.653,213.819 31.673 C 213.544 31.694,213.363 31.781,213.417 31.868 C 213.547 32.079,212.843 32.338,212.580 32.175 C 212.465 32.104,212.371 32.259,212.371 32.518 C 212.371 32.777,212.262 32.990,212.129 32.990 C 211.995 32.990,211.950 32.887,212.027 32.761 C 212.105 32.635,212.071 32.532,211.951 32.532 C 211.742 32.532,211.456 33.048,211.478 33.384 C 211.497 33.676,210.656 33.849,210.485 33.588 C 210.369 33.413,210.315 33.427,210.313 33.633 C 210.311 33.798,210.229 33.884,210.131 33.823 C 209.818 33.629,208.915 34.478,208.875 35.003 C 208.833 35.561,208.489 35.660,208.064 35.235 C 207.850 35.021,207.789 35.060,207.789 35.409 C 207.789 36.019,206.891 36.594,206.617 36.161 C 206.436 35.875,206.316 36.059,206.394 36.503 C 206.413 36.608,206.220 36.749,205.966 36.816 C 205.711 36.882,205.561 37.030,205.632 37.145 C 205.703 37.260,205.676 37.331,205.573 37.303 C 205.469 37.275,205.157 37.329,204.880 37.423 C 204.279 37.628,204.418 38.259,205.065 38.259 C 205.303 38.259,205.498 38.362,205.498 38.488 C 205.498 38.614,205.682 38.717,205.906 38.717 C 206.130 38.717,206.462 38.923,206.644 39.175 C 206.825 39.427,207.157 39.633,207.382 39.633 C 207.606 39.633,207.789 39.737,207.789 39.863 C 207.789 39.989,207.995 40.092,208.247 40.092 C 208.499 40.092,208.706 40.193,208.706 40.316 C 208.706 40.440,208.989 40.611,209.336 40.697 C 209.682 40.782,210.132 41.042,210.336 41.274 C 210.540 41.506,210.875 41.695,211.081 41.695 C 211.286 41.695,211.455 41.798,211.455 41.924 C 211.455 42.050,211.638 42.153,211.862 42.153 C 212.087 42.153,212.419 42.360,212.600 42.612 C 212.782 42.864,213.040 43.070,213.173 43.070 C 213.306 43.070,213.564 43.276,213.746 43.528 C 213.927 43.780,214.259 43.986,214.484 43.986 C 214.708 43.986,214.891 44.089,214.891 44.215 C 214.891 44.341,215.075 44.444,215.299 44.444 C 215.523 44.444,215.855 44.651,216.037 44.903 C 216.218 45.155,216.528 45.361,216.724 45.361 C 216.920 45.361,217.230 45.567,217.411 45.819 C 217.593 46.071,217.925 46.277,218.149 46.277 C 218.373 46.277,218.557 46.380,218.557 46.506 C 218.557 46.632,218.740 46.735,218.964 46.735 C 219.189 46.735,219.521 46.942,219.702 47.194 C 219.884 47.446,220.193 47.652,220.389 47.652 C 220.586 47.652,220.895 47.858,221.077 48.110 C 221.258 48.362,221.539 48.568,221.700 48.568 C 221.861 48.568,221.993 48.671,221.993 48.797 C 221.993 48.923,222.199 49.026,222.451 49.026 C 222.703 49.026,222.910 49.127,222.910 49.251 C 222.910 49.375,223.193 49.546,223.540 49.631 C 223.886 49.717,224.336 49.977,224.540 50.208 C 224.744 50.440,225.079 50.630,225.285 50.630 C 225.490 50.630,225.659 50.733,225.659 50.859 C 225.659 50.985,225.842 51.088,226.066 51.088 C 226.290 51.088,226.622 51.294,226.804 51.546 C 226.986 51.798,227.295 52.005,227.491 52.005 C 227.688 52.005,227.997 52.211,228.179 52.463 C 228.360 52.715,228.692 52.921,228.917 52.921 C 229.141 52.921,229.324 53.024,229.324 53.150 C 229.324 53.276,229.523 53.379,229.767 53.379 C 230.010 53.379,230.275 53.585,230.355 53.837 C 230.435 54.089,230.700 54.296,230.943 54.296 C 231.187 54.296,231.386 54.399,231.386 54.525 C 231.386 54.651,231.569 54.754,231.794 54.754 C 232.018 54.754,232.350 54.960,232.532 55.212 C 232.713 55.464,233.022 55.670,233.219 55.670 C 233.415 55.670,233.724 55.876,233.906 56.128 C 234.088 56.380,234.420 56.586,234.644 56.586 C 234.868 56.586,235.052 56.690,235.052 56.816 C 235.052 56.942,235.214 57.045,235.412 57.045 C 235.875 57.045,236.426 57.596,236.426 58.059 C 236.426 58.257,236.587 58.419,236.783 58.419 C 236.980 58.419,237.077 58.316,236.999 58.190 C 236.807 57.879,237.189 57.899,237.506 58.216 C 237.646 58.356,237.888 58.392,238.045 58.296 C 238.256 58.165,238.221 58.042,237.906 57.812 C 237.623 57.605,237.587 57.503,237.796 57.503 C 237.968 57.503,238.313 57.683,238.563 57.904 C 239.002 58.290,239.014 58.287,238.892 57.802 C 238.809 57.467,238.924 57.162,239.239 56.886 C 239.577 56.591,239.663 56.571,239.541 56.816 C 239.447 57.005,239.561 56.944,239.795 56.680 C 240.029 56.417,240.391 56.226,240.598 56.257 C 240.806 56.287,241.032 56.168,241.100 55.991 C 241.167 55.815,241.372 55.670,241.554 55.670 C 241.737 55.670,241.927 55.546,241.978 55.395 C 242.049 55.181,242.107 55.181,242.240 55.395 C 242.333 55.546,242.300 55.670,242.167 55.670 C 242.034 55.670,241.924 55.786,241.924 55.927 C 241.924 56.116,242.006 56.117,242.232 55.929 C 242.401 55.789,242.613 55.747,242.702 55.837 C 242.792 55.926,242.802 55.836,242.725 55.635 C 242.544 55.164,243.289 54.367,243.536 54.767 C 243.652 54.954,243.761 54.875,243.872 54.525 C 243.998 54.125,244.081 54.078,244.231 54.321 C 244.396 54.587,244.471 54.587,244.721 54.317 C 244.965 54.055,244.960 54.032,244.695 54.183 C 244.491 54.300,244.428 54.278,244.524 54.123 C 244.606 53.990,244.896 53.938,245.168 54.009 C 245.527 54.103,245.613 54.060,245.483 53.849 C 245.349 53.633,245.435 53.601,245.819 53.723 C 246.218 53.849,246.292 53.816,246.147 53.576 C 245.993 53.320,246.024 53.317,246.321 53.557 C 246.618 53.797,246.706 53.787,246.816 53.500 C 246.890 53.307,247.134 53.148,247.358 53.147 C 247.710 53.144,247.719 53.109,247.423 52.898 C 247.147 52.700,247.180 52.674,247.595 52.765 C 247.878 52.827,248.053 52.785,247.982 52.671 C 247.912 52.556,248.015 52.463,248.211 52.463 C 248.407 52.463,248.568 52.347,248.568 52.206 C 248.568 52.038,248.703 52.058,248.956 52.263 C 249.169 52.436,249.271 52.457,249.184 52.311 C 249.086 52.148,249.292 51.925,249.712 51.739 C 250.091 51.572,250.401 51.354,250.401 51.256 C 250.401 51.157,250.684 50.971,251.031 50.842 C 252.324 50.360,252.921 50.055,252.921 49.873 C 252.921 49.771,253.013 49.744,253.126 49.813 C 253.239 49.883,253.390 49.786,253.463 49.598 C 253.535 49.409,253.803 49.255,254.059 49.255 C 254.315 49.255,254.525 49.152,254.525 49.026 C 254.525 48.900,254.731 48.797,254.983 48.797 C 255.235 48.797,255.441 48.688,255.441 48.555 C 255.441 48.421,255.537 48.371,255.654 48.444 C 255.772 48.516,256.030 48.345,256.227 48.063 C 256.468 47.719,256.589 47.661,256.593 47.887 C 256.599 48.145,256.656 48.130,256.834 47.824 C 256.962 47.603,257.194 47.423,257.349 47.423 C 257.503 47.423,257.884 47.245,258.195 47.027 C 258.506 46.809,258.905 46.610,259.082 46.584 C 259.259 46.558,259.466 46.445,259.542 46.333 C 259.617 46.220,260.321 45.811,261.105 45.422 C 261.890 45.034,262.798 44.506,263.125 44.249 C 263.458 43.987,263.878 43.844,264.084 43.923 C 264.311 44.011,264.393 43.971,264.300 43.820 C 264.156 43.588,264.574 43.305,265.269 43.165 C 265.446 43.129,265.653 42.999,265.730 42.874 C 265.806 42.750,266.020 42.614,266.205 42.573 C 266.390 42.531,266.681 42.367,266.852 42.209 C 267.022 42.050,267.273 41.989,267.408 42.072 C 267.554 42.162,267.587 42.117,267.490 41.960 C 267.394 41.803,267.472 41.695,267.684 41.695 C 267.881 41.695,268.041 41.592,268.041 41.466 C 268.041 41.340,268.247 41.237,268.499 41.237 C 268.751 41.237,268.958 41.134,268.958 41.008 C 268.958 40.882,269.112 40.779,269.301 40.779 C 269.490 40.779,269.645 40.676,269.645 40.550 C 269.645 40.424,269.855 40.321,270.113 40.321 C 270.370 40.321,270.802 40.115,271.072 39.863 C 271.343 39.611,271.751 39.404,271.979 39.404 C 272.207 39.404,272.394 39.295,272.394 39.162 C 272.394 39.028,272.497 38.983,272.623 39.061 C 272.749 39.139,272.852 39.037,272.852 38.835 C 272.852 38.633,272.981 38.493,273.139 38.524 C 273.434 38.581,275.398 37.640,275.601 37.343 C 275.664 37.251,275.948 37.103,276.231 37.014 C 276.515 36.926,276.747 36.757,276.747 36.640 C 276.747 36.522,276.953 36.426,277.205 36.426 C 277.457 36.426,277.664 36.349,277.664 36.254 C 277.664 36.160,278.231 35.825,278.923 35.510 C 279.615 35.195,280.182 34.860,280.182 34.765 C 280.183 34.671,280.338 34.593,280.527 34.593 C 280.716 34.593,280.871 34.515,280.871 34.420 C 280.871 34.213,282.279 33.551,282.549 33.632 C 282.652 33.663,282.672 33.583,282.592 33.454 C 282.512 33.324,282.608 33.219,282.804 33.219 C 283.001 33.219,283.162 33.116,283.162 32.990 C 283.162 32.864,283.368 32.761,283.620 32.761 C 283.872 32.761,284.078 32.658,284.078 32.532 C 284.078 32.405,284.215 32.302,284.383 32.302 C 284.551 32.302,284.826 32.045,284.994 31.730 C 285.163 31.415,285.381 31.157,285.479 31.157 C 285.577 31.157,286.255 30.811,286.987 30.389 C 287.718 29.966,289.296 29.105,290.493 28.476 C 294.362 26.441,295.414 25.861,295.636 25.643 C 295.993 25.293,295.723 25.393,294.158 26.193 C 291.883 27.357,290.974 27.364,290.030 26.227 C 289.876 26.040,289.656 25.888,289.543 25.888 C 289.429 25.888,288.577 25.384,287.648 24.769 C 286.719 24.154,285.871 23.613,285.763 23.567 C 285.344 23.386,282.943 21.911,280.756 20.491 C 279.496 19.673,278.255 18.914,277.997 18.804 C 277.740 18.694,277.393 18.439,277.225 18.237 C 277.057 18.035,276.827 17.869,276.714 17.869 C 276.601 17.869,276.073 17.588,275.540 17.244 C 275.007 16.900,274.397 16.514,274.184 16.385 C 272.334 15.264,269.889 13.746,268.270 12.714 C 267.199 12.031,266.014 11.298,265.636 11.086 C 265.258 10.873,264.278 10.268,263.459 9.742 C 262.640 9.216,261.327 8.381,260.540 7.886 C 259.054 6.952,258.831 6.592,259.506 6.214 C 259.725 6.091,259.844 5.930,259.770 5.856 C 259.695 5.782,259.387 5.903,259.084 6.125 M106.904 9.310 C 106.698 10.814,106.722 31.108,106.930 31.236 C 107.025 31.294,107.102 26.146,107.102 19.795 C 107.102 13.444,107.090 8.247,107.076 8.247 C 107.061 8.247,106.984 8.726,106.904 9.310 M308.080 20.326 C 308.491 20.377,309.110 20.376,309.454 20.324 C 309.799 20.272,309.462 20.230,308.706 20.231 C 307.950 20.233,307.668 20.275,308.080 20.326 M313.053 21.090 C 313.475 21.216,313.820 21.209,313.958 21.071 C 314.103 20.926,313.863 20.855,313.276 20.867 C 312.382 20.887,312.379 20.889,313.053 21.090 M300.742 22.656 C 299.347 23.475,299.037 23.794,300.229 23.185 C 301.114 22.732,302.182 22.003,301.947 22.012 C 301.884 22.014,301.342 22.304,300.742 22.656 M298.396 23.914 C 298.144 24.063,297.490 24.421,296.942 24.709 C 296.395 24.997,295.993 25.279,296.051 25.337 C 296.139 25.425,298.892 23.977,299.179 23.692 C 299.373 23.499,298.840 23.650,298.396 23.914 M205.373 36.180 C 205.444 36.294,205.372 36.439,205.213 36.503 C 205.055 36.567,205.158 36.627,205.441 36.637 C 206.029 36.658,206.133 36.314,205.601 36.110 C 205.405 36.035,205.303 36.066,205.373 36.180 M204.506 36.579 C 204.227 36.857,204.347 37.015,204.865 37.055 C 205.147 37.076,205.276 37.019,205.152 36.929 C 205.027 36.838,204.865 36.688,204.792 36.595 C 204.718 36.502,204.590 36.495,204.506 36.579 M107.216 48.454 C 107.127 54.514,107.038 56.230,106.816 56.186 C 106.617 56.146,106.529 56.476,106.529 57.258 C 106.529 58.187,106.448 58.414,106.071 58.534 C 105.819 58.614,105.613 58.775,105.613 58.893 C 105.613 59.010,105.407 59.107,105.155 59.107 C 104.903 59.107,104.696 59.210,104.696 59.336 C 104.696 59.462,104.513 59.565,104.289 59.565 C 104.065 59.565,103.733 59.771,103.551 60.023 C 103.369 60.275,103.037 60.481,102.813 60.481 C 102.589 60.481,102.405 60.584,102.405 60.710 C 102.405 60.836,102.222 60.939,101.998 60.939 C 101.774 60.939,101.442 61.145,101.260 61.397 C 101.078 61.649,100.821 61.856,100.687 61.856 C 100.554 61.856,100.296 62.062,100.115 62.314 C 99.933 62.566,99.601 62.772,99.377 62.772 C 99.152 62.772,98.969 62.875,98.969 63.001 C 98.969 63.127,98.786 63.230,98.561 63.230 C 98.337 63.230,98.005 63.436,97.824 63.688 C 97.642 63.940,97.310 64.147,97.086 64.147 C 96.862 64.147,96.678 64.250,96.678 64.376 C 96.678 64.502,96.495 64.605,96.271 64.605 C 96.046 64.605,95.714 64.811,95.533 65.063 C 95.351 65.315,95.019 65.521,94.795 65.521 C 94.571 65.521,94.387 65.624,94.387 65.750 C 94.387 65.876,94.219 65.979,94.013 65.979 C 93.807 65.979,93.472 66.171,93.269 66.405 C 93.065 66.639,92.666 66.903,92.383 66.993 C 92.099 67.082,91.867 67.252,91.867 67.369 C 91.867 67.487,91.661 67.583,91.409 67.583 C 91.157 67.583,90.951 67.686,90.951 67.812 C 90.951 67.938,90.767 68.041,90.543 68.041 C 90.319 68.041,89.987 68.247,89.805 68.499 C 89.624 68.751,89.292 68.958,89.067 68.958 C 88.843 68.958,88.660 69.061,88.660 69.187 C 88.660 69.313,88.476 69.416,88.252 69.416 C 88.028 69.416,87.696 69.622,87.514 69.874 C 87.333 70.126,87.023 70.332,86.827 70.332 C 86.631 70.332,86.321 70.538,86.140 70.790 C 85.958 71.042,85.626 71.249,85.402 71.249 C 85.178 71.249,84.994 71.352,84.994 71.478 C 84.994 71.604,84.811 71.707,84.587 71.707 C 84.362 71.707,84.030 71.913,83.849 72.165 C 83.667 72.417,83.387 72.623,83.225 72.623 C 83.064 72.623,82.932 72.726,82.932 72.852 C 82.932 72.978,82.749 73.081,82.525 73.081 C 82.301 73.081,81.969 73.288,81.787 73.540 C 81.605 73.792,81.273 73.998,81.049 73.998 C 80.825 73.998,80.641 74.101,80.641 74.227 C 80.641 74.353,80.458 74.456,80.234 74.456 C 80.010 74.456,79.678 74.662,79.496 74.914 C 79.314 75.166,79.027 75.372,78.856 75.372 C 78.686 75.372,78.392 75.527,78.203 75.716 C 78.014 75.905,77.661 76.060,77.418 76.060 C 77.175 76.060,76.976 76.163,76.976 76.289 C 76.976 76.415,76.793 76.518,76.568 76.518 C 76.344 76.518,76.012 76.724,75.830 76.976 C 75.649 77.228,75.368 77.434,75.207 77.434 C 75.046 77.434,74.914 77.537,74.914 77.663 C 74.914 77.789,74.752 77.892,74.554 77.892 C 74.118 77.892,73.540 78.435,73.540 78.843 C 73.540 79.006,73.388 78.924,73.204 78.660 C 72.970 78.326,72.845 77.390,72.792 75.574 C 72.751 74.140,72.733 77.812,72.754 83.734 C 72.790 94.005,72.870 95.983,73.294 97.022 C 73.819 98.306,74.550 99.656,74.721 99.656 C 74.827 99.656,74.914 99.838,74.914 100.060 C 74.914 100.282,75.189 100.669,75.525 100.919 C 75.860 101.170,76.263 101.501,76.418 101.655 C 76.574 101.809,77.150 101.997,77.698 102.073 C 78.246 102.150,78.900 102.300,79.152 102.408 C 80.400 102.941,83.684 103.212,84.845 102.877 C 85.368 102.727,86.157 102.500,86.598 102.374 C 87.570 102.095,90.348 100.757,90.454 100.516 C 90.496 100.421,90.728 100.344,90.970 100.344 C 91.211 100.344,91.409 100.266,91.409 100.171 C 91.409 100.077,91.899 99.744,92.497 99.432 C 93.096 99.121,93.637 98.812,93.700 98.745 C 93.763 98.679,94.124 98.474,94.502 98.290 C 94.880 98.105,95.447 97.784,95.762 97.577 C 96.077 97.369,97.211 96.734,98.282 96.166 C 99.353 95.599,100.641 94.899,101.145 94.611 C 101.649 94.323,102.474 93.871,102.978 93.607 C 103.482 93.343,103.946 93.067,104.009 92.994 C 104.072 92.921,104.459 92.716,104.868 92.537 C 105.278 92.359,105.613 92.136,105.613 92.040 C 105.613 91.945,105.772 91.867,105.966 91.867 C 106.161 91.867,106.574 91.632,106.884 91.344 L 107.448 90.822 107.389 65.743 C 107.357 51.950,107.279 44.170,107.216 48.454 M285.386 104.639 C 285.343 109.270,285.230 113.368,285.134 113.746 C 284.603 115.840,283.278 118.141,281.751 119.617 C 280.967 120.375,280.748 121.081,281.487 120.468 C 281.660 120.324,282.442 119.879,283.226 119.479 C 284.010 119.079,285.063 118.512,285.567 118.221 C 287.183 117.285,288.521 116.540,289.462 116.053 C 289.966 115.792,290.430 115.527,290.493 115.464 C 290.719 115.237,291.990 114.517,292.383 114.392 C 292.603 114.322,292.784 114.174,292.784 114.063 C 292.784 113.951,292.990 113.860,293.242 113.860 C 293.494 113.860,293.700 113.769,293.700 113.657 C 293.700 113.397,295.327 112.601,295.704 112.677 C 295.862 112.709,295.993 112.601,295.995 112.438 C 296.002 111.975,298.553 110.811,298.780 111.167 C 298.958 111.449,299.016 111.344,299.061 110.653 C 299.074 110.464,299.425 110.199,299.842 110.064 C 300.258 109.930,300.593 109.749,300.586 109.663 C 300.579 109.578,300.573 109.452,300.573 109.385 C 300.573 109.317,300.767 109.366,301.004 109.493 C 301.335 109.670,301.429 109.648,301.405 109.400 C 301.388 109.222,301.462 109.080,301.568 109.085 C 301.674 109.090,302.050 108.817,302.404 108.478 C 303.012 107.895,303.061 107.885,303.316 108.284 C 303.503 108.576,303.552 108.594,303.475 108.341 C 303.252 107.608,304.855 106.683,305.468 107.191 C 305.707 107.390,305.855 107.362,306.096 107.072 C 306.374 106.737,306.358 106.709,305.955 106.835 C 305.704 106.913,305.361 106.891,305.193 106.785 C 304.961 106.639,305.002 106.563,305.365 106.468 C 305.960 106.312,305.767 105.613,305.130 105.613 C 304.892 105.613,304.696 105.510,304.696 105.384 C 304.696 105.258,304.490 105.155,304.238 105.155 C 303.986 105.155,303.780 105.052,303.780 104.926 C 303.780 104.800,303.574 104.696,303.322 104.696 C 303.070 104.696,302.864 104.593,302.864 104.467 C 302.864 104.341,302.658 104.238,302.405 104.238 C 302.153 104.238,301.947 104.135,301.947 104.009 C 301.947 103.883,301.741 103.780,301.489 103.780 C 301.237 103.780,301.031 103.677,301.031 103.551 C 301.031 103.425,300.876 103.322,300.687 103.322 C 300.498 103.322,300.344 103.219,300.344 103.093 C 300.344 102.967,300.137 102.864,299.885 102.864 C 299.633 102.864,299.427 102.761,299.427 102.635 C 299.427 102.509,299.221 102.405,298.969 102.405 C 298.717 102.405,298.511 102.302,298.511 102.176 C 298.511 102.050,298.305 101.947,298.053 101.947 C 297.801 101.947,297.595 101.853,297.595 101.738 C 297.595 101.623,297.182 101.460,296.678 101.375 C 296.174 101.289,295.762 101.126,295.762 101.011 C 295.762 100.896,295.556 100.802,295.304 100.802 C 295.052 100.802,294.845 100.699,294.845 100.573 C 294.845 100.447,294.639 100.344,294.387 100.344 C 294.135 100.344,293.929 100.241,293.929 100.115 C 293.929 99.989,293.723 99.885,293.471 99.885 C 293.219 99.885,293.013 99.782,293.013 99.656 C 293.013 99.530,292.858 99.427,292.669 99.427 C 292.480 99.427,292.325 99.324,292.325 99.198 C 292.325 99.072,292.016 98.969,291.638 98.969 C 291.260 98.969,290.951 98.866,290.951 98.740 C 290.951 98.614,290.745 98.511,290.493 98.511 C 290.241 98.511,290.034 98.408,290.034 98.282 C 290.034 98.156,289.828 98.053,289.576 98.053 C 289.324 98.053,289.118 97.950,289.118 97.824 C 289.118 97.698,288.912 97.595,288.660 97.595 C 288.408 97.595,288.202 97.491,288.202 97.365 C 288.202 97.239,287.995 97.136,287.743 97.136 C 287.491 97.136,287.285 97.033,287.285 96.907 C 287.285 96.781,287.079 96.678,286.827 96.678 C 286.575 96.678,286.369 96.575,286.369 96.449 C 286.369 96.323,286.165 96.220,285.916 96.220 C 285.475 96.220,285.461 96.433,285.386 104.639 M299.656 110.577 C 299.656 110.745,299.748 110.882,299.861 110.882 C 299.973 110.882,300.118 110.745,300.183 110.577 C 300.247 110.409,300.155 110.271,299.978 110.271 C 299.801 110.271,299.656 110.409,299.656 110.577 " stroke="none" fill="#4fa8e1" fill-rule="evenodd"></path><path id="path4" d="M111.569 1.145 C 111.569 1.665,111.332 1.733,110.928 1.329 C 110.714 1.115,110.653 1.117,110.653 1.336 C 110.653 1.807,111.382 1.941,111.685 1.526 C 111.838 1.317,112.081 1.145,112.225 1.145 C 112.368 1.145,112.486 1.042,112.486 0.916 C 112.486 0.790,112.279 0.687,112.027 0.687 C 111.722 0.687,111.569 0.840,111.569 1.145 M109.953 2.921 L 109.164 3.780 110.023 2.991 C 110.823 2.256,110.987 2.062,110.812 2.062 C 110.774 2.062,110.388 2.448,109.953 2.921 M263.230 3.937 C 262.789 4.194,262.377 4.470,262.314 4.551 C 262.251 4.631,262.045 4.730,261.856 4.771 C 261.667 4.812,261.478 4.941,261.436 5.057 C 261.394 5.174,261.187 5.269,260.977 5.270 C 260.547 5.270,259.105 6.424,259.109 6.765 C 259.110 6.887,259.754 7.392,260.540 7.886 C 261.327 8.381,262.640 9.216,263.459 9.742 C 264.278 10.268,265.258 10.873,265.636 11.086 C 266.014 11.298,267.199 12.031,268.270 12.714 C 269.889 13.746,272.334 15.264,274.184 16.385 C 274.397 16.514,275.007 16.900,275.540 17.244 C 276.073 17.588,276.601 17.869,276.714 17.869 C 276.827 17.869,277.057 18.035,277.225 18.237 C 277.393 18.439,277.740 18.694,277.997 18.804 C 278.255 18.914,279.496 19.673,280.756 20.491 C 282.943 21.911,285.344 23.386,285.763 23.567 C 285.871 23.613,286.719 24.154,287.648 24.769 C 288.577 25.384,289.429 25.888,289.543 25.888 C 289.656 25.888,289.876 26.040,290.030 26.227 C 291.067 27.476,291.820 27.400,295.074 25.717 C 297.640 24.391,298.404 23.877,297.170 24.307 C 296.305 24.608,296.014 24.500,293.884 23.088 C 293.167 22.612,292.471 22.222,292.338 22.222 C 292.205 22.222,292.096 22.119,292.096 21.993 C 292.096 21.867,291.992 21.764,291.865 21.764 C 291.738 21.764,290.784 21.211,289.746 20.534 C 288.707 19.858,286.724 18.603,285.338 17.746 C 283.952 16.888,282.125 15.741,281.279 15.195 C 280.432 14.650,279.680 14.204,279.608 14.204 C 279.535 14.204,278.711 13.688,277.778 13.058 C 276.844 12.428,275.973 11.913,275.841 11.913 C 275.709 11.913,275.601 11.810,275.601 11.684 C 275.601 11.558,275.497 11.455,275.370 11.455 C 275.242 11.455,274.443 11.006,273.594 10.458 C 270.798 8.653,267.558 6.644,267.442 6.644 C 267.380 6.644,266.712 6.225,265.957 5.712 C 265.203 5.200,264.263 4.645,263.870 4.480 C 263.198 4.197,263.184 4.169,263.650 4.021 C 263.923 3.935,264.147 3.768,264.147 3.650 C 264.147 3.388,264.199 3.371,263.230 3.937 M106.584 20.578 C 106.536 29.928,106.572 31.232,106.886 31.546 C 107.082 31.743,107.185 32.053,107.115 32.236 C 107.045 32.419,106.969 33.256,106.947 34.097 L 106.906 35.624 106.758 34.021 C 106.631 32.645,106.604 32.572,106.570 33.505 C 106.537 34.380,106.449 34.593,106.122 34.593 C 105.897 34.593,105.565 34.800,105.384 35.052 C 105.202 35.304,104.870 35.510,104.646 35.510 C 104.422 35.510,104.238 35.613,104.238 35.739 C 104.238 35.865,104.055 35.968,103.831 35.968 C 103.606 35.968,103.274 36.174,103.093 36.426 C 102.911 36.678,102.602 36.884,102.405 36.884 C 102.209 36.884,101.900 37.090,101.718 37.342 C 101.537 37.595,101.256 37.801,101.095 37.801 C 100.934 37.801,100.802 37.904,100.802 38.030 C 100.802 38.156,100.618 38.259,100.394 38.259 C 100.170 38.259,99.838 38.465,99.656 38.717 C 99.475 38.969,99.143 39.175,98.918 39.175 C 98.694 39.175,98.511 39.278,98.511 39.404 C 98.511 39.530,98.343 39.633,98.137 39.633 C 97.931 39.633,97.596 39.826,97.392 40.061 C 97.188 40.296,96.661 40.568,96.220 40.664 C 95.779 40.761,95.252 41.033,95.048 41.268 C 94.844 41.503,94.532 41.695,94.354 41.695 C 94.176 41.695,93.882 41.901,93.700 42.153 C 93.518 42.405,93.186 42.612,92.962 42.612 C 92.738 42.612,92.554 42.715,92.554 42.841 C 92.554 42.967,92.423 43.070,92.261 43.070 C 92.100 43.070,91.820 43.276,91.638 43.528 C 91.456 43.780,91.124 43.986,90.900 43.986 C 90.676 43.986,90.493 44.089,90.493 44.215 C 90.493 44.341,90.309 44.444,90.085 44.444 C 89.861 44.444,89.529 44.651,89.347 44.903 C 89.165 45.155,88.856 45.361,88.660 45.361 C 88.463 45.361,88.154 45.567,87.973 45.819 C 87.791 46.071,87.459 46.277,87.235 46.277 C 87.010 46.277,86.827 46.380,86.827 46.506 C 86.827 46.632,86.644 46.735,86.419 46.735 C 86.195 46.735,85.863 46.942,85.682 47.194 C 85.500 47.446,85.168 47.652,84.944 47.652 C 84.720 47.652,84.536 47.755,84.536 47.881 C 84.536 48.007,84.337 48.110,84.093 48.110 C 83.850 48.110,83.585 48.316,83.505 48.568 C 83.425 48.820,83.160 49.026,82.917 49.026 C 82.673 49.026,82.474 49.129,82.474 49.255 C 82.474 49.381,82.275 49.485,82.032 49.485 C 81.789 49.485,81.436 49.639,81.247 49.828 C 81.058 50.017,80.764 50.172,80.594 50.172 C 80.424 50.172,80.136 50.378,79.954 50.630 C 79.773 50.882,79.441 51.088,79.216 51.088 C 78.992 51.088,78.809 51.191,78.809 51.317 C 78.809 51.443,78.625 51.546,78.401 51.546 C 78.177 51.546,77.845 51.753,77.663 52.005 C 77.482 52.257,77.150 52.463,76.925 52.463 C 76.701 52.463,76.518 52.566,76.518 52.692 C 76.518 52.818,76.334 52.921,76.110 52.921 C 75.886 52.921,75.554 53.127,75.372 53.379 C 75.191 53.631,74.957 53.837,74.853 53.837 C 74.749 53.837,74.388 54.113,74.051 54.451 L 73.438 55.064 73.282 54.508 C 73.197 54.202,73.117 53.417,73.104 52.763 C 73.092 52.109,72.964 51.501,72.821 51.413 C 72.343 51.117,72.673 77.902,73.156 78.591 C 73.367 78.893,73.540 79.006,73.540 78.843 C 73.540 78.435,74.118 77.892,74.554 77.892 C 74.752 77.892,74.914 77.789,74.914 77.663 C 74.914 77.537,75.046 77.434,75.207 77.434 C 75.368 77.434,75.649 77.228,75.830 76.976 C 76.012 76.724,76.344 76.518,76.568 76.518 C 76.793 76.518,76.976 76.415,76.976 76.289 C 76.976 76.163,77.175 76.060,77.418 76.060 C 77.661 76.060,78.014 75.905,78.203 75.716 C 78.392 75.527,78.686 75.372,78.856 75.372 C 79.027 75.372,79.314 75.166,79.496 74.914 C 79.678 74.662,80.010 74.456,80.234 74.456 C 80.458 74.456,80.641 74.353,80.641 74.227 C 80.641 74.101,80.825 73.998,81.049 73.998 C 81.273 73.998,81.605 73.792,81.787 73.540 C 81.969 73.288,82.301 73.081,82.525 73.081 C 82.749 73.081,82.932 72.978,82.932 72.852 C 82.932 72.726,83.064 72.623,83.225 72.623 C 83.387 72.623,83.667 72.417,83.849 72.165 C 84.030 71.913,84.362 71.707,84.587 71.707 C 84.811 71.707,84.994 71.604,84.994 71.478 C 84.994 71.352,85.178 71.249,85.402 71.249 C 85.626 71.249,85.958 71.042,86.140 70.790 C 86.321 70.538,86.631 70.332,86.827 70.332 C 87.023 70.332,87.333 70.126,87.514 69.874 C 87.696 69.622,88.028 69.416,88.252 69.416 C 88.476 69.416,88.660 69.313,88.660 69.187 C 88.660 69.061,88.843 68.958,89.067 68.958 C 89.292 68.958,89.624 68.751,89.805 68.499 C 89.987 68.247,90.319 68.041,90.543 68.041 C 90.767 68.041,90.951 67.938,90.951 67.812 C 90.951 67.686,91.157 67.583,91.409 67.583 C 91.661 67.583,91.867 67.487,91.867 67.369 C 91.867 67.252,92.099 67.082,92.383 66.993 C 92.666 66.903,93.065 66.639,93.269 66.405 C 93.472 66.171,93.807 65.979,94.013 65.979 C 94.219 65.979,94.387 65.876,94.387 65.750 C 94.387 65.624,94.571 65.521,94.795 65.521 C 95.019 65.521,95.351 65.315,95.533 65.063 C 95.714 64.811,96.046 64.605,96.271 64.605 C 96.495 64.605,96.678 64.502,96.678 64.376 C 96.678 64.250,96.862 64.147,97.086 64.147 C 97.310 64.147,97.642 63.940,97.824 63.688 C 98.005 63.436,98.337 63.230,98.561 63.230 C 98.786 63.230,98.969 63.127,98.969 63.001 C 98.969 62.875,99.152 62.772,99.377 62.772 C 99.601 62.772,99.933 62.566,100.115 62.314 C 100.296 62.062,100.554 61.856,100.687 61.856 C 100.821 61.856,101.078 61.649,101.260 61.397 C 101.442 61.145,101.774 60.939,101.998 60.939 C 102.222 60.939,102.405 60.836,102.405 60.710 C 102.405 60.584,102.589 60.481,102.813 60.481 C 103.037 60.481,103.369 60.275,103.551 60.023 C 103.733 59.771,104.065 59.565,104.289 59.565 C 104.513 59.565,104.696 59.462,104.696 59.336 C 104.696 59.210,104.903 59.107,105.155 59.107 C 105.407 59.107,105.613 59.010,105.613 58.893 C 105.613 58.775,105.819 58.614,106.071 58.534 C 106.448 58.414,106.529 58.187,106.529 57.258 C 106.529 56.476,106.617 56.146,106.816 56.186 C 107.303 56.283,107.591 32.418,107.114 31.501 C 106.808 30.912,106.748 29.310,106.698 20.389 L 106.639 9.966 106.584 20.578 " stroke="none" fill="#62b4e4" fill-rule="evenodd"></path></g></svg>