<?xml version="1.0" encoding="UTF-8" standalone="no"?>
<svg
   xmlns:dc="http://purl.org/dc/elements/1.1/"
   xmlns:cc="http://creativecommons.org/ns#"
   xmlns:rdf="http://www.w3.org/1999/02/22-rdf-syntax-ns#"
   xmlns:svg="http://www.w3.org/2000/svg"
   xmlns="http://www.w3.org/2000/svg"
   xmlns:sodipodi="http://sodipodi.sourceforge.net/DTD/sodipodi-0.dtd"
   xmlns:inkscape="http://www.inkscape.org/namespaces/inkscape"
   class="icon"
   height="64"
   viewBox="0 0 64 128"
   version="1.1"
   id="svg2"
   inkscape:version="0.91 r13725"
   sodipodi:docname="avatar.svg"
   width="64">
  <metadata
     id="metadata10">
    <rdf:RDF>
      <cc:Work
         rdf:about="">
        <dc:format>image/svg+xml</dc:format>
        <dc:type
           rdf:resource="http://purl.org/dc/dcmitype/StillImage" />
        <dc:title></dc:title>
      </cc:Work>
    </rdf:RDF>
  </metadata>
  <defs
     id="defs8" />
  <sodipodi:namedview
     pagecolor="#ffffff"
     bordercolor="#666666"
     borderopacity="1"
     objecttolerance="10"
     gridtolerance="10"
     guidetolerance="10"
     inkscape:pageopacity="0"
     inkscape:pageshadow="2"
     inkscape:window-width="1366"
     inkscape:window-height="712"
     id="namedview6"
     showgrid="false"
     inkscape:zoom="2.9389126"
     inkscape:cx="1.9463772"
     inkscape:cy="23.789663"
     inkscape:window-x="0"
     inkscape:window-y="0"
     inkscape:window-maximized="1"
     inkscape:current-layer="svg2"
     inkscape:snap-others="true" />
  <path
     style="fill:#666666"
     inkscape:connector-curvature="0"
     id="use3367"
     d="m 32,0 c -35.3599997,0 -64,28.64 -64,64 0,35.360002 28.6400003,64.00001 64,64.00001 C 67.36001,128.00001 96,99.360002 96,64 96,28.64 67.36001,0 32,0 Z m -0.96,22.4 c 11.84,0 21.60001,9.28 21.60001,20.8 C 52.64001,54.72 43.04,64 31.04,64 19.2,64 9.6000003,54.72 9.6000003,43.2 9.6000003,31.68 19.2,22.4 31.04,22.4 Z M 68.8,99.520002 c 0,5.920008 -12.48,6.080008 -27.84,6.080008 l -17.92,0 c -15.3599997,0 -27.8399997,0 -27.8399997,-6.080008 l 0,-1.760002 c 0,-14.88 12.48,-26.88 27.8399997,-26.88 l 17.92,0 c 15.36,0 27.84,12 27.84,26.88 l 0,1.760002 z"
     inkscape:export-xdpi="90"
     inkscape:export-ydpi="90" />
</svg>
