<svg width="27" height="14" viewBox="0 0 27 14" fill="none" xmlns="http://www.w3.org/2000/svg">
<path d="M1.89517 2.34612e-06H25.113C25.3617 -0.000345529 25.608 0.0379963 25.8375 0.112786C26.067 0.187576 26.2751 0.297314 26.4496 0.435584C26.8011 0.713575 26.9987 1.08805 27 1.47853V12.5215C26.9996 12.7154 26.95 12.9074 26.8542 13.0864C26.7584 13.2654 26.6183 13.4278 26.4418 13.5644C26.2678 13.7032 26.0598 13.8133 25.8302 13.8882C25.6006 13.963 25.354 14.001 25.1051 14H1.89517C1.64646 14.0003 1.40016 13.962 1.17066 13.8872C0.941157 13.8124 0.733068 13.7027 0.558553 13.5644C0.377517 13.4253 0.23466 13.259 0.138688 13.0755C0.0427148 12.8919 -0.00436467 12.6951 0.000317977 12.4969V1.45399C0.0077527 1.07049 0.208275 0.704667 0.558553 0.435584C0.733594 0.297863 0.941785 0.188485 1.17116 0.113734C1.40054 0.0389834 1.64659 0.000332633 1.89517 2.34612e-06ZM6.29028 10.1043C6.29028 10.2198 6.23147 10.3306 6.12678 10.4123C6.02209 10.494 5.8801 10.5399 5.73205 10.5399C5.584 10.5399 5.44201 10.494 5.33732 10.4123C5.23263 10.3306 5.17382 10.2198 5.17382 10.1043V3.88343C5.17382 3.76791 5.23263 3.65712 5.33732 3.57543C5.44201 3.49374 5.584 3.44785 5.73205 3.44785C5.8801 3.44785 6.02209 3.49374 6.12678 3.57543C6.23147 3.65712 6.29028 3.76791 6.29028 3.88343V10.1043ZM11.4638 10.1043C11.4638 10.2198 11.405 10.3306 11.3003 10.4123C11.1956 10.494 11.0536 10.5399 10.9055 10.5399C10.7575 10.5399 10.6155 10.494 10.5108 10.4123C10.4061 10.3306 10.3473 10.2198 10.3473 10.1043V3.88343C10.3473 3.76791 10.4061 3.65712 10.5108 3.57543C10.6155 3.49374 10.7575 3.44785 10.9055 3.44785C11.0536 3.44785 11.1956 3.49374 11.3003 3.57543C11.405 3.65712 11.4638 3.76791 11.4638 3.88343V10.1043ZM16.6451 10.1043C16.6451 10.2198 16.5863 10.3306 16.4816 10.4123C16.3769 10.494 16.235 10.5399 16.0869 10.5399C15.9389 10.5399 15.7969 10.494 15.6922 10.4123C15.5875 10.3306 15.5287 10.2198 15.5287 10.1043V3.88343C15.5287 3.76791 15.5875 3.65712 15.6922 3.57543C15.7969 3.49374 15.9389 3.44785 16.0869 3.44785C16.235 3.44785 16.3769 3.49374 16.4816 3.57543C16.5863 3.65712 16.6451 3.76791 16.6451 3.88343V10.1043ZM21.8265 10.1043C21.8265 10.2198 21.7677 10.3306 21.663 10.4123C21.5583 10.494 21.4163 10.5399 21.2683 10.5399C21.1202 10.5399 20.9782 10.494 20.8735 10.4123C20.7688 10.3306 20.71 10.2198 20.71 10.1043V3.88343C20.71 3.76791 20.7688 3.65712 20.8735 3.57543C20.9782 3.49374 21.1202 3.44785 21.2683 3.44785C21.4163 3.44785 21.5583 3.49374 21.663 3.57543C21.7677 3.65712 21.8265 3.76791 21.8265 3.88343V10.1043ZM25.1051 0.901841H1.89517C1.68665 0.901841 1.48666 0.966477 1.33921 1.08153C1.19176 1.19658 1.10892 1.35263 1.10892 1.51534V12.5583C1.10892 12.721 1.19176 12.877 1.33921 12.9921C1.48666 13.1071 1.68665 13.1718 1.89517 13.1718H25.113C25.3215 13.1718 25.5215 13.1071 25.669 12.9921C25.8164 12.877 25.8993 12.721 25.8993 12.5583V1.51534C25.8984 1.35439 25.8165 1.20016 25.6712 1.08589C25.6018 1.02234 25.5165 0.970516 25.4205 0.933594C25.3245 0.896672 25.2199 0.875429 25.113 0.871166L25.1051 0.901841Z" fill="#B3B3B3"/>
</svg>
