<svg width="14" height="19" viewBox="0 0 14 19" fill="none" xmlns="http://www.w3.org/2000/svg">
<path fill-rule="evenodd" clip-rule="evenodd" d="M2.82472 9.90953C2.7139 9.90953 2.60763 9.86639 2.52927 9.78958C2.45091 9.71278 2.40689 9.60861 2.40689 9.5C2.40689 9.39139 2.45091 9.28722 2.52927 9.21042C2.60763 9.13362 2.7139 9.09047 2.82472 9.09047H11.1812C11.292 9.09047 11.3983 9.13362 11.4766 9.21042C11.555 9.28722 11.599 9.39139 11.599 9.5C11.599 9.60861 11.555 9.71278 11.4766 9.78958C11.3983 9.86639 11.292 9.90953 11.1812 9.90953H2.82472ZM2.82472 13.0128C2.76985 13.0128 2.71551 13.0022 2.66482 12.9816C2.61413 12.961 2.56807 12.9308 2.52927 12.8928C2.49047 12.8548 2.4597 12.8096 2.4387 12.7599C2.4177 12.7103 2.40689 12.657 2.40689 12.6032C2.40689 12.5494 2.4177 12.4962 2.4387 12.4465C2.4597 12.3968 2.49047 12.3517 2.52927 12.3136C2.56807 12.2756 2.61413 12.2454 2.66482 12.2249C2.71551 12.2043 2.76985 12.1937 2.82472 12.1937H6.99706C7.10787 12.1937 7.21415 12.2368 7.2925 12.3136C7.37086 12.3904 7.41488 12.4946 7.41488 12.6032C7.41488 12.7118 7.37086 12.816 7.2925 12.8928C7.21415 12.9696 7.10787 13.0128 6.99706 13.0128H2.82472ZM9.63934 1.54584C9.71951 2.2176 10.0338 2.84164 10.5292 3.31247C11.0246 3.78331 11.6706 4.07206 12.3581 4.12993L9.63934 1.54584ZM14 4.53947V15.6718C13.9969 16.5556 13.6365 17.4021 12.9979 18.0259C12.3592 18.6497 11.4943 19 10.5927 19H3.39554C2.49594 18.997 1.63408 18.6453 0.997959 18.0218C0.361842 17.3983 0.0031021 16.5536 0 15.6718V3.32817C0.0031021 2.44642 0.361842 1.60165 0.997959 0.978158C1.63408 0.354663 2.49594 0.00304055 3.39554 0L9.19798 0L14 4.53947ZM13.1644 4.95477H12.5759C12.0761 4.95433 11.5813 4.8573 11.1199 4.66925C10.6584 4.4812 10.2393 4.20581 9.88651 3.85883C9.53074 3.51285 9.24829 3.10133 9.05539 2.64795C8.86249 2.19457 8.76295 1.70828 8.76251 1.21706V0.819065H3.39554C3.06008 0.81889 2.72787 0.883493 2.41788 1.00918C2.10789 1.13488 1.8262 1.31919 1.5889 1.55161C1.34949 1.78403 1.15961 2.06077 1.03029 2.36576C0.900979 2.67075 0.834814 2.9979 0.835645 3.32817V15.6718C0.837209 16.3355 1.10576 16.9718 1.58302 17.4426C1.81925 17.6769 2.1006 17.8627 2.41075 17.9895C2.72089 18.1162 3.05364 18.1813 3.38966 18.1809H10.5927C11.2707 18.1779 11.92 17.9126 12.3994 17.4427C12.8788 16.9728 13.1495 16.3364 13.1526 15.6718L13.1644 4.95477ZM2.82472 6.80632C2.7139 6.80632 2.60763 6.76317 2.52927 6.68637C2.45091 6.60956 2.40689 6.5054 2.40689 6.39678C2.40689 6.28817 2.45091 6.184 2.52927 6.1072C2.60763 6.0304 2.7139 5.98725 2.82472 5.98725H11.1812C11.292 5.98725 11.3983 6.0304 11.4766 6.1072C11.555 6.184 11.599 6.28817 11.599 6.39678C11.599 6.5054 11.555 6.60956 11.4766 6.68637C11.3983 6.76317 11.292 6.80632 11.1812 6.80632H2.82472Z" fill="#B3B3B3"/>
</svg>
