<svg width="17" height="17" viewBox="0 0 17 17" fill="none" xmlns="http://www.w3.org/2000/svg">
<path d="M5.99507 9.12711C5.90185 9.12711 5.81245 9.08943 5.74653 9.02237C5.68061 8.9553 5.64358 8.86433 5.64358 8.76948C5.64358 8.67463 5.68061 8.58367 5.74653 8.5166C5.81245 8.44953 5.90185 8.41185 5.99507 8.41185H11.0149C11.1081 8.41185 11.1975 8.44953 11.2634 8.5166C11.3293 8.58367 11.3663 8.67463 11.3663 8.76948C11.3663 8.86433 11.3293 8.9553 11.2634 9.02237C11.1975 9.08943 11.1081 9.12711 11.0149 9.12711H5.99507ZM16.1634 5.35941V15.7861C16.1621 16.1076 16.0359 16.4156 15.8125 16.643C15.589 16.8704 15.2863 16.9987 14.9703 17H2.03468C1.71866 16.9987 1.41595 16.8704 1.19249 16.643C0.969028 16.4156 0.842912 16.1076 0.841609 15.7861V5.35941C0.65509 5.30068 0.485263 5.197 0.34656 5.05719C0.235731 4.94403 0.148042 4.80965 0.0885614 4.66181C0.0290812 4.51397 -0.00101036 4.3556 2.588e-05 4.19585V1.21393C-0.000254831 1.05459 0.0306844 0.8968 0.0910348 0.749772C0.151385 0.602745 0.239936 0.469434 0.35151 0.357632C0.461723 0.244557 0.592807 0.154754 0.737233 0.0933803C0.881658 0.0320069 1.03658 0.000273104 1.19309 1.92625e-06H15.8119C15.9685 -0.000283692 16.1236 0.0311964 16.2681 0.0926019C16.4126 0.154007 16.5436 0.244106 16.6535 0.357632C16.8747 0.585873 16.9992 0.893334 17 1.21393V4.19585C16.9969 4.51153 16.8725 4.81344 16.6535 5.03704C16.5183 5.18348 16.3501 5.29414 16.1634 5.35941ZM1.54458 5.41482V15.7861C1.54458 15.8522 1.55738 15.9177 1.58226 15.9788C1.60714 16.0399 1.6436 16.0955 1.68957 16.1422C1.73554 16.189 1.79012 16.2261 1.85018 16.2514C1.91024 16.2767 1.97462 16.2898 2.03963 16.2898H14.9703C15.1016 16.2898 15.2275 16.2367 15.3204 16.1422C15.4132 16.0478 15.4653 15.9197 15.4653 15.7861V5.41482H1.54458ZM15.8119 0.715261H1.19309C1.0618 0.715261 0.935881 0.76833 0.843041 0.862792C0.750201 0.957255 0.698045 1.08537 0.698045 1.21896V4.19585C0.698045 4.32944 0.750201 4.45756 0.843041 4.55203C0.935881 4.64649 1.0618 4.69956 1.19309 4.69956H15.8119C15.9418 4.699 16.0662 4.64654 16.1584 4.55348C16.2052 4.50683 16.2424 4.4512 16.2679 4.38981C16.2934 4.32842 16.3067 4.2625 16.3069 4.19585V1.21393C16.3064 1.08179 16.2548 0.955155 16.1634 0.861335C16.1171 0.814651 16.0623 0.777717 16.0019 0.75265C15.9416 0.727584 15.877 0.714878 15.8119 0.715261Z" fill="#B3B3B3"/>
</svg>
