<svg width="10" height="11" viewBox="0 0 10 11" fill="none" xmlns="http://www.w3.org/2000/svg">
<path d="M1.27213 8.24263V0.789224C1.27194 0.685634 1.29244 0.583046 1.33241 0.487457C1.37238 0.391869 1.43102 0.305198 1.50492 0.232511C1.57769 0.158703 1.66447 0.100127 1.76017 0.0602043C1.85587 0.0202821 1.95858 -0.00018444 2.06229 1.25233e-06H9.20983C9.4194 1.25233e-06 9.62038 0.0831512 9.76856 0.231159C9.91675 0.379167 10 0.579909 10 0.789224V9.65406C10.0004 9.83093 9.96587 10.0061 9.8983 10.1696C9.83073 10.3331 9.73149 10.4817 9.60628 10.6067C9.48106 10.7318 9.33233 10.8309 9.16865 10.8984C9.00496 10.9659 8.82954 11.0004 8.65246 11H1.34754C1.17058 11 0.99535 10.9652 0.831859 10.8975C0.668368 10.8299 0.519816 10.7308 0.394685 10.6058C0.269555 10.4808 0.170296 10.3324 0.102575 10.1691C0.0348552 10.0058 0 9.83081 0 9.65406L0 8.47514C0 8.41347 0.0245257 8.35433 0.0681817 8.31073C0.111838 8.26713 0.171048 8.24263 0.232787 8.24263H1.27213ZM9.5377 9.65406V0.789224C9.5377 0.702371 9.50316 0.619076 9.44167 0.557662C9.38018 0.496248 9.29679 0.461746 9.20983 0.461746H2.06229C1.97534 0.461746 1.89194 0.496248 1.83046 0.557662C1.76897 0.619076 1.73443 0.702371 1.73443 0.789224V8.24263H7.46229C7.49286 8.24263 7.52313 8.24864 7.55138 8.26033C7.57962 8.27201 7.60528 8.28914 7.6269 8.31073C7.64851 8.33232 7.66566 8.35795 7.67736 8.38616C7.68906 8.41437 7.69508 8.4446 7.69508 8.47514V9.74575C7.69741 9.91121 7.74549 10.0728 7.83402 10.2127C7.92255 10.3525 8.04807 10.4652 8.19672 10.5383H8.65573C8.89025 10.5374 9.11491 10.444 9.28074 10.2783C9.44657 10.1127 9.54012 9.8883 9.54098 9.65406H9.5377ZM7.21311 2.55761C7.15137 2.55761 7.09216 2.53311 7.04851 2.48951C7.00485 2.4459 6.98033 2.38676 6.98033 2.3251C6.98033 2.26343 7.00485 2.20429 7.04851 2.16069C7.09216 2.11708 7.15137 2.09259 7.21311 2.09259H7.77377C7.83551 2.09259 7.89472 2.11708 7.93837 2.16069C7.98203 2.20429 8.00655 2.26343 8.00655 2.3251C8.00655 2.38676 7.98203 2.4459 7.93837 2.48951C7.89472 2.53311 7.83551 2.55761 7.77377 2.55761H7.21311ZM3.12459 2.55761C3.06285 2.55761 3.00364 2.53311 2.95998 2.48951C2.91633 2.4459 2.8918 2.38676 2.8918 2.3251C2.8918 2.26343 2.91633 2.20429 2.95998 2.16069C3.00364 2.11708 3.06285 2.09259 3.12459 2.09259H5.96065C6.02239 2.09259 6.0816 2.11708 6.12526 2.16069C6.16891 2.20429 6.19344 2.26343 6.19344 2.3251C6.19344 2.38676 6.16891 2.4459 6.12526 2.48951C6.0816 2.53311 6.02239 2.55761 5.96065 2.55761H3.12459ZM7.21311 4.34564C7.15137 4.34564 7.09216 4.32114 7.04851 4.27754C7.00485 4.23393 6.98033 4.17479 6.98033 4.11313C6.98033 4.05146 7.00485 3.99232 7.04851 3.94872C7.09216 3.90511 7.15137 3.88062 7.21311 3.88062H7.77377C7.83551 3.88062 7.89472 3.90511 7.93837 3.94872C7.98203 3.99232 8.00655 4.05146 8.00655 4.11313C8.00655 4.17479 7.98203 4.23393 7.93837 4.27754C7.89472 4.32114 7.83551 4.34564 7.77377 4.34564H7.21311ZM3.12459 4.34564C3.06285 4.34564 3.00364 4.32114 2.95998 4.27754C2.91633 4.23393 2.8918 4.17479 2.8918 4.11313C2.8918 4.05146 2.91633 3.99232 2.95998 3.94872C3.00364 3.90511 3.06285 3.88062 3.12459 3.88062H5.96065C6.02239 3.88062 6.0816 3.90511 6.12526 3.94872C6.16891 3.99232 6.19344 4.05146 6.19344 4.11313C6.19344 4.17479 6.16891 4.23393 6.12526 4.27754C6.0816 4.32114 6.02239 4.34564 5.96065 4.34564H3.12459ZM7.21311 6.13694C7.15137 6.13694 7.09216 6.11245 7.04851 6.06884C7.00485 6.02524 6.98033 5.9661 6.98033 5.90443C6.98033 5.84277 7.00485 5.78363 7.04851 5.74003C7.09216 5.69642 7.15137 5.67192 7.21311 5.67192H7.77377C7.83551 5.67192 7.89472 5.69642 7.93837 5.74003C7.98203 5.78363 8.00655 5.84277 8.00655 5.90443C8.00655 5.9661 7.98203 6.02524 7.93837 6.06884C7.89472 6.11245 7.83551 6.13694 7.77377 6.13694H7.21311ZM3.12459 6.13694C3.06285 6.13694 3.00364 6.11245 2.95998 6.06884C2.91633 6.02524 2.8918 5.9661 2.8918 5.90443C2.8918 5.84277 2.91633 5.78363 2.95998 5.74003C3.00364 5.69642 3.06285 5.67192 3.12459 5.67192H5.96065C6.02239 5.67192 6.0816 5.69642 6.12526 5.74003C6.16891 5.78363 6.19344 5.84277 6.19344 5.90443C6.19344 5.9661 6.16891 6.02524 6.12526 6.06884C6.0816 6.11245 6.02239 6.13694 5.96065 6.13694H3.12459ZM7.22951 8.70765H0.465574V9.65406C0.465572 9.888 0.558388 10.1124 0.723696 10.2781C0.889003 10.4438 1.11333 10.5374 1.34754 10.5383H7.4918L7.45573 10.4793C7.31022 10.2598 7.23268 10.0024 7.23278 9.7392L7.22951 8.70765Z" fill="#B3B3B3"/>
</svg>
