<svg width="88" height="70" viewBox="0 0 88 70" fill="none" xmlns="http://www.w3.org/2000/svg">
<g clip-path="url(#clip0_1_15)">
<path fill-rule="evenodd" clip-rule="evenodd" d="M67.4416 22.8787C67.9384 22.6307 68.4352 22.3207 68.8078 22.0726C67.8763 22.5067 67.1932 22.4447 66.5102 22.1346L28.0721 0.682034C26.5197 -0.0619868 25.2156 -0.371996 23.3527 0.744036L18.5712 3.72012C18.0745 4.03013 17.5156 4.34014 17.143 4.52614C18.0745 4.09213 18.6333 4.03013 19.3164 4.40214L57.8166 25.8548C59.3069 26.7848 60.7352 26.6608 62.2876 25.9788L67.5037 22.8787H67.4416Z" fill="url(#paint0_linear_1_15)"/>
<path fill-rule="evenodd" clip-rule="evenodd" d="M62.4118 0.992065V24.2427C62.4118 25.0488 61.8529 26.2888 60.673 26.5368C61.2319 26.4128 61.7908 26.2268 62.4118 25.8548C64.8335 24.4907 66.1376 23.7467 68.5594 22.3207C69.4287 21.8247 69.8013 21.0806 69.8013 20.2126V6.82023C69.8013 5.14618 69.0561 4.77417 67.3174 3.84415L62.3497 0.992065H62.4118Z" fill="url(#paint1_linear_1_15)"/>
<path fill-rule="evenodd" clip-rule="evenodd" d="M23.4148 25.9787V2.23206C23.4148 1.42604 23.9116 0.248007 25.1535 0C24.5946 0.124004 24.0358 0.310009 23.4148 0.68202C20.993 2.04606 19.9373 2.79008 17.5156 4.21612C16.7083 4.71213 15.9631 5.64216 15.9631 6.51019V20.1506C15.9631 21.8246 16.7083 22.1966 18.447 23.1267L23.4148 25.9787Z" fill="url(#paint2_linear_1_15)"/>
<path fill-rule="evenodd" clip-rule="evenodd" d="M18.3228 23.0646C17.8881 22.8166 17.3292 22.5066 16.9567 22.2586C17.9502 22.6926 18.8196 22.5686 19.5026 22.1966L57.6923 0.867979C59.2448 0.123957 60.7351 -0.12405 62.6601 0.991982L67.4416 3.84406C67.9384 4.15407 68.4972 4.46408 68.8077 4.65009C67.8142 4.15407 66.9448 4.34008 66.2617 4.71209L27.9478 26.1647C26.4575 27.0327 25.0293 26.9707 23.539 26.2267L18.3228 23.1266V23.0646Z" fill="url(#paint3_linear_1_15)"/>
<path d="M3.79232 49.6634H0.00439453V37.015H3.79232V49.6634ZM21.2416 49.6634H17.3916L10.4367 41.9132V49.6634H6.64878V37.015H10.4367L17.3916 44.7652V37.015H21.2416V49.6634ZM32.4812 39.7431H27.886V41.9132H32.0465V44.6412H27.886V49.6634H24.0981V37.015H32.4812V39.7431ZM38.2562 49.6634H34.4683V37.015H38.2562V49.6634ZM55.7055 49.6634H51.8555L44.9006 41.9132V49.6634H41.0506V37.015H44.9006L51.8555 44.7652V37.015H55.7055V49.6634ZM62.2878 49.6634H58.4998V37.015H62.2878V49.6634ZM73.7757 39.7431H70.6088V49.6634H66.7588V39.7431H63.6539V37.015H73.7136V39.7431H73.7757ZM87.9339 37.015L82.4693 43.5872V49.6634H78.6814V43.5872L73.4031 37.015H77.9983L80.7306 40.4871L83.4008 37.015H87.996H87.9339Z" fill="#1A1A1A"/>
<path d="M24.0979 63.0558H26.1471V63.4898H23.6011V59.4597H26.085V59.8937H24.0979V61.1957H25.8366V61.6298H24.0979V63.0558ZM29.0035 61.6918C29.2519 62.0638 29.5003 62.4358 29.7487 62.8078C29.7487 62.4358 29.6866 62.0018 29.6866 61.6298V59.4597H30.1834V63.4898H29.6866L28.0721 61.2577C27.8237 60.8857 27.5753 60.5137 27.3269 60.1417C27.3269 60.5137 27.389 60.9477 27.389 61.4438V63.4898H26.8922V59.4597H27.389L29.0035 61.6918ZM34.406 61.4438C34.406 61.6918 34.406 61.8778 34.3439 62.1258C34.2818 62.3118 34.2197 62.4978 34.0955 62.6838C33.9713 62.8698 33.8471 62.9938 33.6608 63.1178C33.4745 63.2418 33.2882 63.3038 33.0399 63.4278C32.9157 63.4898 32.7294 63.4898 32.6052 63.4898C32.4189 63.4898 32.2947 63.4898 32.1084 63.4898H31.1769V59.4597H32.1084C32.2947 59.4597 32.481 59.4597 32.6052 59.4597C32.7915 59.4597 32.9157 59.5217 33.0399 59.5217C33.2882 59.5837 33.4745 59.7077 33.6608 59.7697C33.8471 59.8937 33.9713 60.0177 34.0955 60.2037C34.2197 60.3897 34.2818 60.5757 34.3439 60.7617C34.406 60.9477 34.406 61.1957 34.406 61.4438ZM33.9092 61.4438C33.9092 61.0717 33.8471 60.7617 33.6608 60.5137C33.4745 60.2657 33.2262 60.0797 32.9157 60.0177C32.7915 59.9557 32.6673 59.9557 32.481 59.9557C32.3568 59.9557 32.1705 59.9557 31.9842 59.9557H31.6116V63.1178H31.9842C32.1705 63.1178 32.3568 63.1178 32.481 63.1178C32.6052 63.1178 32.7915 63.0558 32.9157 63.0558C33.2262 62.9318 33.4745 62.8078 33.6608 62.4978C33.8471 62.2498 33.9092 61.9398 33.9092 61.5058V61.4438ZM35.6479 59.4597V63.0558H37.635V63.4898H35.1512V59.4597H35.6479ZM38.7528 63.0558H40.802V63.4898H38.256V59.4597H40.7399V59.8937H38.7528V61.1957H40.4915V61.6298H38.7528V63.0558ZM41.9197 60.5137C41.9197 60.6377 41.9197 60.6997 41.9818 60.8237C42.0439 60.8857 42.106 60.9477 42.1681 61.0097C42.2302 61.0717 42.3544 61.0717 42.4786 61.1337C42.6028 61.1957 42.727 61.1957 42.7891 61.1957C42.9754 61.2577 43.0996 61.2577 43.2238 61.3198C43.348 61.3818 43.5343 61.4438 43.6585 61.5058C43.7827 61.5678 43.8447 61.6918 43.9689 61.8158C44.031 61.9398 44.0931 62.1258 44.0931 62.3118C44.0931 62.4978 44.031 62.6838 43.9689 62.8698C43.9068 62.9938 43.7827 63.1178 43.6585 63.2418C43.5343 63.3658 43.348 63.4278 43.1617 63.4898C42.9754 63.5518 42.7891 63.5518 42.5407 63.5518C42.4165 63.5518 42.3544 63.5518 42.2302 63.5518C42.106 63.5518 42.0439 63.5518 41.9197 63.4898C41.7955 63.4898 41.7334 63.4278 41.6714 63.4278C41.6093 63.4278 41.5472 63.3658 41.4851 63.3658V62.9318C41.5472 62.9938 41.6093 62.9938 41.7334 63.0558C41.7955 63.0558 41.9197 63.1178 42.0439 63.1178C42.1681 63.1178 42.2302 63.1798 42.3544 63.1798C42.4786 63.1798 42.5407 63.1798 42.6028 63.1798C42.727 63.1798 42.8512 63.1798 43.0375 63.1178C43.1617 63.1178 43.2859 63.0558 43.348 62.9938C43.4722 62.9318 43.5343 62.8698 43.5964 62.7458C43.6585 62.6218 43.6585 62.4978 43.6585 62.3738C43.6585 62.2498 43.6585 62.1258 43.5964 62.0638C43.5343 62.0018 43.4722 61.9398 43.4101 61.8778C43.348 61.8158 43.2238 61.8158 43.0996 61.7538C42.9754 61.6918 42.8512 61.6918 42.7891 61.6918C42.6028 61.6298 42.4786 61.6298 42.3544 61.5678C42.2302 61.5058 42.0439 61.4438 41.9818 61.3818C41.8576 61.3198 41.7955 61.1957 41.6714 61.0717C41.6093 60.9477 41.5472 60.7617 41.5472 60.5757C41.5472 60.3897 41.6093 60.2037 41.6714 60.0177C41.7334 59.8937 41.8576 59.7697 41.9818 59.6457C42.106 59.5217 42.2302 59.4597 42.4165 59.4597C42.6028 59.3977 42.7891 59.3977 42.9754 59.3977C43.1617 59.3977 43.4101 59.3977 43.5964 59.4597C43.7827 59.5217 43.9689 59.5837 44.0931 59.6457V60.0797C43.9068 60.0177 43.7827 59.9557 43.5964 59.8937C43.4101 59.8317 43.2238 59.8317 43.0375 59.8317C42.9133 59.8317 42.727 59.8317 42.6649 59.8937C42.5407 59.9557 42.4786 59.9557 42.3544 60.0177C42.2923 60.0797 42.2302 60.1417 42.1681 60.2657C42.106 60.3277 42.106 60.4517 42.106 60.5757L41.9197 60.5137ZM45.2109 60.5137C45.2109 60.6377 45.2109 60.6997 45.273 60.8237C45.3351 60.8857 45.3972 60.9477 45.4593 61.0097C45.5214 61.0717 45.6456 61.0717 45.7698 61.1337C45.894 61.1957 46.0181 61.1957 46.0802 61.1957C46.2665 61.2577 46.3907 61.2577 46.5149 61.3198C46.6391 61.3818 46.8254 61.4438 46.9496 61.5058C47.0738 61.5678 47.1359 61.6918 47.2601 61.8158C47.3222 61.9398 47.3843 62.1258 47.3843 62.3118C47.3843 62.4978 47.3222 62.6838 47.2601 62.8698C47.198 62.9938 47.0738 63.1178 46.9496 63.2418C46.8254 63.3658 46.6391 63.4278 46.4528 63.4898C46.2665 63.5518 46.0802 63.5518 45.8319 63.5518C45.7077 63.5518 45.6456 63.5518 45.5214 63.5518C45.3972 63.5518 45.3351 63.5518 45.2109 63.4898C45.0867 63.4898 45.0246 63.4278 44.9625 63.4278C44.9004 63.4278 44.8383 63.3658 44.7762 63.3658V62.9318C44.8383 62.9938 44.9004 62.9938 45.0246 63.0558C45.0867 63.0558 45.2109 63.1178 45.3351 63.1178C45.4593 63.1178 45.5214 63.1798 45.6456 63.1798C45.7698 63.1798 45.8319 63.1798 45.894 63.1798C46.0181 63.1798 46.1423 63.1798 46.3286 63.1178C46.4528 63.1178 46.577 63.0558 46.6391 62.9938C46.7633 62.9318 46.8254 62.8698 46.8875 62.7458C46.9496 62.6218 46.9496 62.4978 46.9496 62.3738C46.9496 62.2498 46.9496 62.1258 46.8875 62.0638C46.8254 62.0018 46.7633 61.9398 46.7012 61.8778C46.6391 61.8158 46.5149 61.8158 46.3907 61.7538C46.2665 61.6918 46.1423 61.6918 46.0802 61.6918C45.894 61.6298 45.7698 61.6298 45.6456 61.5678C45.5214 61.5058 45.3351 61.4438 45.273 61.3818C45.1488 61.3198 45.0867 61.1957 44.9625 61.0717C44.9004 60.9477 44.8383 60.7617 44.8383 60.5757C44.8383 60.3897 44.9004 60.2037 44.9625 60.0177C45.0246 59.8937 45.1488 59.7697 45.273 59.6457C45.3972 59.5217 45.5214 59.4597 45.7077 59.4597C45.894 59.3977 46.0802 59.3977 46.2665 59.3977C46.4528 59.3977 46.7012 59.3977 46.8875 59.4597C47.0738 59.5217 47.2601 59.5837 47.3843 59.6457V60.0797C47.198 60.0177 47.0738 59.9557 46.8875 59.8937C46.7012 59.8317 46.5149 59.8317 46.3286 59.8317C46.2044 59.8317 46.0181 59.8317 45.9561 59.8937C45.8319 59.9557 45.7698 59.9557 45.6456 60.0177C45.5835 60.0797 45.5214 60.1417 45.4593 60.2657C45.3972 60.3277 45.3972 60.4517 45.3972 60.5757L45.2109 60.5137ZM49.8682 63.4898H49.3714V59.4597H51.7932V59.8937H49.8682V61.1957H51.5448V61.6298H49.8682V63.4898ZM52.8488 59.4597V63.0558H54.8359V63.4898H52.3521V59.4597H52.8488ZM58.3755 61.5058C58.3755 61.2577 58.3134 61.0097 58.2513 60.7617C58.1892 60.5757 58.065 60.3897 57.9408 60.2657C57.8166 60.1417 57.6924 60.0177 57.5061 59.9557C57.3198 59.8937 57.1335 59.8317 56.9472 59.8317C56.7609 59.8317 56.5746 59.8937 56.3884 59.9557C56.2021 60.0177 56.0779 60.1417 55.9537 60.2657C55.8295 60.3897 55.7053 60.5757 55.6432 60.7617C55.5811 60.9477 55.519 61.1957 55.519 61.5058C55.519 61.7538 55.5811 62.0018 55.6432 62.2498C55.7053 62.4358 55.8295 62.6218 55.9537 62.7458C56.0779 62.8698 56.2021 62.9938 56.3884 63.0558C56.5746 63.1178 56.7609 63.1798 56.9472 63.1798C57.1335 63.1798 57.3198 63.1178 57.5061 63.0558C57.6924 62.9938 57.8166 62.8698 57.9408 62.7458C58.065 62.6218 58.1892 62.4358 58.2513 62.2498C58.3134 62.0638 58.3755 61.8158 58.3755 61.5058ZM58.8722 61.5058C58.8722 61.8158 58.8101 62.0638 58.748 62.3738C58.686 62.6218 58.5618 62.8698 58.3755 63.0558C58.1892 63.2418 58.0029 63.3658 57.7545 63.4898C57.5061 63.6138 57.2577 63.6758 57.0093 63.6758C56.6988 63.6758 56.4505 63.6138 56.2021 63.4898C55.9537 63.3658 55.7674 63.2418 55.5811 63.0558C55.3948 62.8698 55.2706 62.6218 55.2085 62.3738C55.1464 62.1258 55.0843 61.8158 55.0843 61.5058C55.0843 61.1957 55.1464 60.8857 55.2085 60.6377C55.2706 60.3897 55.3948 60.1417 55.5811 59.9557C55.7674 59.7697 55.9537 59.6457 56.2021 59.5217C56.4505 59.3977 56.6988 59.3357 57.0093 59.3357C57.3198 59.3357 57.5682 59.3977 57.8166 59.5217C58.065 59.6457 58.2513 59.7697 58.4376 59.9557C58.6239 60.1417 58.748 60.3897 58.8101 60.6377C58.8722 60.8857 58.9343 61.1957 58.9343 61.5058H58.8722ZM61.8529 60.1417C61.7908 60.3277 61.7287 60.6377 61.6045 61.1337L60.9835 63.5518H60.4868L59.2448 59.5217H59.7416L60.4247 61.8778C60.5489 62.2498 60.611 62.6218 60.7352 62.9318C60.7973 62.7458 60.7973 62.5598 60.8593 62.3738C60.9214 62.1878 60.9214 62.0638 60.9835 61.8778L61.6045 59.5217H62.1013L62.7223 61.8778C62.8465 62.4358 62.9706 62.8078 62.9706 62.8698C63.0327 62.5598 63.1569 62.2498 63.2811 61.8158L63.9642 59.4597H64.461L63.219 63.4898H62.7223L62.1013 61.0717C61.9771 60.6377 61.915 60.3277 61.8529 60.0797V60.1417ZM13.4172 67.8919C13.4172 67.6439 13.3551 67.3959 13.293 67.1479C13.2309 66.9619 13.1067 66.7759 12.9825 66.6519C12.8583 66.5279 12.7341 66.4039 12.5478 66.3419C12.3615 66.2799 12.1752 66.2179 11.9889 66.2179C11.8027 66.2179 11.6164 66.2799 11.4301 66.3419C11.2438 66.4039 11.1196 66.5279 10.9954 66.6519C10.8712 66.7759 10.747 66.9619 10.6849 67.1479C10.6228 67.3339 10.5607 67.5819 10.5607 67.8919C10.5607 68.1399 10.6228 68.388 10.6849 68.636C10.747 68.822 10.8712 69.008 10.9954 69.132C11.1196 69.256 11.2438 69.38 11.4301 69.442C11.6164 69.504 11.8027 69.566 11.9889 69.566C12.1752 69.566 12.3615 69.504 12.5478 69.442C12.7341 69.38 12.8583 69.256 12.9825 69.132C13.1067 69.008 13.2309 68.822 13.293 68.636C13.3551 68.45 13.4172 68.2019 13.4172 67.8919ZM13.914 67.8919C13.914 68.2019 13.8519 68.45 13.7898 68.76C13.7277 69.008 13.6035 69.256 13.4172 69.442C13.2309 69.628 13.0446 69.752 12.7962 69.876C12.5478 70 12.2994 70.062 12.051 70.062C11.7406 70.062 11.4922 70 11.2438 69.876C10.9954 69.752 10.8091 69.628 10.6228 69.442C10.4365 69.256 10.3123 69.008 10.2502 68.76C10.1881 68.512 10.126 68.2019 10.126 67.8919C10.126 67.5819 10.1881 67.2719 10.2502 67.0239C10.3123 66.7759 10.4365 66.5279 10.6228 66.3419C10.8091 66.1559 10.9954 66.0319 11.2438 65.9079C11.4922 65.7839 11.7406 65.7219 12.051 65.7219C12.3615 65.7219 12.6099 65.7839 12.8583 65.9079C13.1067 66.0319 13.293 66.1559 13.4793 66.3419C13.6656 66.5279 13.7898 66.7759 13.8519 67.0239C13.914 67.2719 13.9761 67.5819 13.9761 67.8919H13.914ZM15.218 69.938H14.7212V65.9079H17.143V66.3419H15.218V67.6439H16.8946V68.0779H15.218V69.938ZM21.3656 68.326H20.4342V67.8919H21.8624V69.876C21.8003 69.876 21.7382 69.938 21.6761 69.938C21.614 69.938 21.4898 70 21.3656 70C21.2414 70 21.1793 70.062 21.0551 70.062C20.9309 70.062 20.8067 70.062 20.6825 70.062C20.31 70.062 19.9995 70 19.7511 69.938C19.5027 69.814 19.2543 69.69 19.068 69.566C18.8817 69.38 18.7575 69.194 18.6333 68.946C18.5712 68.698 18.5091 68.45 18.5091 68.1399C18.5091 67.8299 18.5712 67.5199 18.6333 67.2099C18.7575 66.9619 18.8817 66.7139 19.068 66.5279C19.2543 66.3419 19.5027 66.2179 19.7511 66.0939C19.9995 65.9699 20.31 65.9079 20.6825 65.9079C20.7446 65.9079 20.8688 65.9079 20.9309 65.9079C20.993 65.9079 21.1172 65.9079 21.1793 65.9079C21.2414 65.9079 21.3656 65.9079 21.4277 65.9699C21.4898 65.9699 21.5519 66.0319 21.614 66.0319V66.4659C21.4898 66.4039 21.3656 66.4039 21.1793 66.3419C20.993 66.3419 20.8688 66.2799 20.6825 66.2799C20.4342 66.2799 20.2479 66.3419 19.9995 66.4039C19.8132 66.4659 19.6269 66.5899 19.4406 66.7139C19.2543 66.8379 19.1301 67.0239 19.068 67.2719C18.9438 67.4579 18.9438 67.7059 18.9438 68.0159C18.9438 68.326 19.0059 68.512 19.068 68.76C19.1301 68.946 19.2543 69.132 19.3785 69.256C19.5027 69.38 19.689 69.504 19.8753 69.566C20.0616 69.628 20.31 69.69 20.5583 69.69C20.6825 69.69 20.8067 69.69 20.9309 69.69C21.0551 69.69 21.1172 69.69 21.2414 69.628V68.45L21.3656 68.326ZM25.8366 67.9539C25.8366 67.7059 25.7745 67.4579 25.7124 67.2099C25.6503 67.0239 25.5261 66.8379 25.4019 66.7139C25.2777 66.5899 25.1535 66.4659 24.9672 66.4039C24.7809 66.3419 24.5947 66.2799 24.4084 66.2799C24.2221 66.2799 24.0358 66.3419 23.8495 66.4039C23.6632 66.4659 23.539 66.5899 23.4148 66.7139C23.2906 66.8379 23.1664 67.0239 23.1043 67.2099C23.0422 67.3959 22.9801 67.6439 22.9801 67.9539C22.9801 68.2019 23.0422 68.45 23.1043 68.698C23.1664 68.884 23.2906 69.07 23.4148 69.194C23.539 69.318 23.6632 69.442 23.8495 69.504C24.0358 69.566 24.2221 69.628 24.4084 69.628C24.5947 69.628 24.7809 69.566 24.9672 69.504C25.1535 69.442 25.2777 69.318 25.4019 69.194C25.5261 69.07 25.6503 68.884 25.7124 68.698C25.7745 68.512 25.8366 68.2639 25.8366 67.9539ZM26.3334 67.9539C26.3334 68.2639 26.2713 68.512 26.2092 68.822C26.1471 69.07 26.0229 69.318 25.8366 69.504C25.6503 69.69 25.464 69.814 25.2156 69.938C24.9672 70.062 24.7189 70.124 24.4705 70.124C24.16 70.124 23.9116 70.062 23.6632 69.938C23.4148 69.814 23.2285 69.69 23.0422 69.504C22.8559 69.318 22.7317 69.07 22.6696 68.822C22.6075 68.574 22.5455 68.2639 22.5455 67.9539C22.5455 67.6439 22.6075 67.3339 22.6696 67.0859C22.7317 66.8379 22.8559 66.5899 23.0422 66.4039C23.2285 66.2179 23.4148 66.0939 23.6632 65.9699C23.9116 65.8459 24.16 65.7839 24.4705 65.7839C24.7809 65.7839 25.0293 65.8459 25.2777 65.9699C25.5261 66.0939 25.7124 66.2179 25.8987 66.4039C26.085 66.5899 26.2092 66.8379 26.2713 67.0859C26.3334 67.3339 26.3955 67.6439 26.3955 67.9539H26.3334ZM30.2455 67.9539C30.2455 67.7059 30.1834 67.4579 30.1213 67.2099C30.0592 67.0239 29.935 66.8379 29.8108 66.7139C29.6866 66.5899 29.5624 66.4659 29.3761 66.4039C29.1898 66.3419 29.0035 66.2799 28.8173 66.2799C28.631 66.2799 28.4447 66.3419 28.2584 66.4039C28.0721 66.4659 27.9479 66.5899 27.8237 66.7139C27.6995 66.8379 27.5753 67.0239 27.5132 67.2099C27.4511 67.3959 27.389 67.6439 27.389 67.9539C27.389 68.2019 27.4511 68.45 27.5132 68.698C27.5753 68.884 27.6995 69.07 27.8237 69.194C27.9479 69.318 28.0721 69.442 28.2584 69.504C28.4447 69.566 28.631 69.628 28.8173 69.628C29.0035 69.628 29.1898 69.566 29.3761 69.504C29.5624 69.442 29.6866 69.318 29.8108 69.194C29.935 69.07 30.0592 68.884 30.1213 68.698C30.1834 68.512 30.2455 68.2639 30.2455 67.9539ZM30.7423 67.9539C30.7423 68.2639 30.6802 68.512 30.6181 68.822C30.556 69.07 30.4318 69.318 30.2455 69.504C30.0592 69.69 29.8729 69.814 29.6245 69.938C29.3761 70.062 29.1277 70.124 28.8794 70.124C28.5689 70.124 28.3205 70.062 28.0721 69.938C27.8237 69.814 27.6374 69.69 27.4511 69.504C27.2648 69.318 27.1406 69.07 27.0785 68.822C27.0164 68.574 26.9543 68.2639 26.9543 67.9539C26.9543 67.6439 27.0164 67.3339 27.0785 67.0859C27.1406 66.8379 27.2648 66.5899 27.4511 66.4039C27.6374 66.2179 27.8237 66.0939 28.0721 65.9699C28.3205 65.8459 28.5689 65.7839 28.8794 65.7839C29.1898 65.7839 29.4382 65.8459 29.6866 65.9699C29.935 66.0939 30.1213 66.2179 30.3076 66.4039C30.4939 66.5899 30.6181 66.8379 30.6802 67.0859C30.7423 67.3339 30.8044 67.6439 30.8044 67.9539H30.7423ZM34.7786 67.9539C34.7786 68.2019 34.7786 68.388 34.7165 68.636C34.6544 68.822 34.5923 69.008 34.4681 69.194C34.3439 69.38 34.2197 69.504 34.0334 69.628C33.8471 69.752 33.6608 69.814 33.4124 69.938C33.2882 70 33.102 70 32.9778 70C32.7915 70 32.6673 70 32.481 70H31.5495V65.9699H32.481C32.6673 65.9699 32.8536 65.9699 32.9778 65.9699C33.1641 65.9699 33.2882 66.0319 33.4124 66.0319C33.6608 66.0939 33.8471 66.2179 34.0334 66.2799C34.2197 66.4039 34.3439 66.5279 34.4681 66.7139C34.5923 66.8999 34.6544 67.0859 34.7165 67.2719C34.7786 67.4579 34.7786 67.7059 34.7786 67.9539ZM34.2818 67.9539C34.2818 67.5819 34.2197 67.2719 34.0334 67.0239C33.8471 66.7759 33.5987 66.5899 33.2882 66.5279C33.1641 66.4659 33.0399 66.4659 32.8536 66.4659C32.7294 66.4659 32.5431 66.4659 32.3568 66.4659H31.9842V69.628H32.3568C32.5431 69.628 32.7294 69.628 32.8536 69.628C32.9778 69.628 33.1641 69.566 33.2882 69.566C33.5987 69.442 33.8471 69.318 34.0334 69.07C34.2197 68.822 34.2818 68.512 34.2818 68.0779V67.9539ZM35.8963 67.0239C35.8963 67.1479 35.8963 67.2099 35.9584 67.3339C36.0205 67.3959 36.0826 67.4579 36.1447 67.5199C36.2068 67.5819 36.331 67.5819 36.4552 67.6439C36.5794 67.7059 36.7036 67.7059 36.7657 67.7059C36.952 67.7679 37.0762 67.7679 37.2004 67.8299C37.3246 67.8919 37.5108 67.9539 37.635 68.0159C37.7592 68.0779 37.8213 68.2019 37.9455 68.326C38.0076 68.45 38.0697 68.636 38.0697 68.822C38.0697 69.008 38.0076 69.194 37.9455 69.38C37.8834 69.504 37.7592 69.628 37.635 69.752C37.5108 69.876 37.3246 69.938 37.1383 70C36.952 70.062 36.7657 70.062 36.5173 70.062C36.3931 70.062 36.331 70.062 36.2068 70.062C36.0826 70.062 36.0205 70 35.8963 70C35.7721 70 35.71 69.938 35.6479 69.938C35.5858 69.938 35.5237 69.876 35.4616 69.876V69.442C35.5237 69.504 35.5858 69.504 35.71 69.566C35.7721 69.566 35.8963 69.628 36.0205 69.628C36.1447 69.628 36.2068 69.69 36.331 69.69C36.4552 69.69 36.5173 69.69 36.5794 69.69C36.7036 69.69 36.8278 69.69 37.0141 69.628C37.1383 69.628 37.2625 69.566 37.3246 69.504C37.4488 69.442 37.5108 69.38 37.5729 69.256C37.635 69.132 37.635 69.008 37.635 68.884C37.635 68.76 37.635 68.636 37.5729 68.574C37.5108 68.512 37.4488 68.45 37.3867 68.388C37.3246 68.326 37.2004 68.326 37.0762 68.2639C36.952 68.2019 36.8278 68.2019 36.7657 68.2019C36.5794 68.1399 36.4552 68.1399 36.331 68.0779C36.2068 68.0159 36.0205 67.9539 35.9584 67.8919C35.8342 67.8299 35.7721 67.7059 35.6479 67.5819C35.5858 67.4579 35.5237 67.2719 35.5237 67.0859C35.5237 66.8999 35.5858 66.7139 35.6479 66.5279C35.71 66.4039 35.8342 66.2799 35.9584 66.1559C36.0826 66.0319 36.2068 65.9699 36.3931 65.9699C36.5794 65.9079 36.7657 65.9079 36.952 65.9079C37.1383 65.9079 37.3867 65.9079 37.5729 65.9699C37.7592 66.0319 37.9455 66.0939 38.0697 66.1559V66.5899C37.8834 66.5279 37.7592 66.4659 37.5729 66.4039C37.3867 66.3419 37.2004 66.3419 37.0141 66.3419C36.8899 66.3419 36.7036 66.3419 36.6415 66.4039C36.5173 66.4659 36.4552 66.4659 36.331 66.5279C36.2689 66.5899 36.2068 66.6519 36.1447 66.7759C36.0826 66.8379 36.0826 66.9619 36.0826 67.0859L35.8963 67.0239ZM39.3738 70L40.9883 65.9699H41.423L43.0996 70H42.5407L42.0439 68.76H40.3673L39.8705 70H39.3117H39.3738ZM41.2367 66.5899C41.0504 67.0859 40.8641 67.5819 40.7399 67.9539L40.5536 68.326H41.9197L41.7334 67.9539C41.5472 67.5199 41.423 67.0859 41.2367 66.5899ZM45.7077 68.2019C45.9561 68.574 46.2044 68.946 46.4528 69.318C46.4528 68.946 46.3907 68.512 46.3907 68.1399V65.9699H46.8875V70H46.3907L44.7762 67.7679C44.5278 67.3959 44.2794 67.0239 44.031 66.6519C44.031 67.0239 44.0931 67.4579 44.0931 67.9539V70H43.5964V65.9699H44.0931L45.7077 68.2019ZM51.1101 67.9539C51.1101 68.2019 51.1101 68.388 51.048 68.636C50.9859 68.822 50.9238 69.008 50.7996 69.194C50.6754 69.38 50.5512 69.504 50.3649 69.628C50.1787 69.752 49.9924 69.814 49.744 69.938C49.6198 70 49.4335 70 49.3093 70C49.123 70 48.9988 70 48.8125 70H47.8811V65.9699H48.8125C48.9988 65.9699 49.1851 65.9699 49.3093 65.9699C49.4956 65.9699 49.6198 66.0319 49.744 66.0319C49.9924 66.0939 50.1787 66.2179 50.3649 66.2799C50.5512 66.4039 50.6754 66.5279 50.7996 66.7139C50.9238 66.8999 50.9859 67.0859 51.048 67.2719C51.1101 67.4579 51.1101 67.7059 51.1101 67.9539ZM50.6133 67.9539C50.6133 67.5819 50.5512 67.2719 50.3649 67.0239C50.1787 66.7759 49.9303 66.5899 49.6198 66.5279C49.4956 66.4659 49.3714 66.4659 49.1851 66.4659C49.0609 66.4659 48.8746 66.4659 48.6883 66.4659H48.3157V69.628H48.6883C48.8746 69.628 49.0609 69.628 49.1851 69.628C49.3093 69.628 49.4956 69.566 49.6198 69.566C49.9303 69.442 50.1787 69.318 50.3649 69.07C50.5512 68.822 50.6133 68.512 50.6133 68.0779V67.9539ZM53.3456 67.0239C53.3456 67.1479 53.3456 67.2099 53.4077 67.3339C53.4698 67.3959 53.5319 67.4579 53.594 67.5199C53.6561 67.5819 53.7803 67.5819 53.9045 67.6439C54.0287 67.7059 54.1529 67.7059 54.215 67.7059C54.4013 67.7679 54.5254 67.7679 54.6496 67.8299C54.7738 67.8919 54.9601 67.9539 55.0843 68.0159C55.2085 68.0779 55.2706 68.2019 55.3948 68.326C55.4569 68.45 55.519 68.636 55.519 68.822C55.519 69.008 55.4569 69.194 55.3948 69.38C55.3327 69.504 55.2085 69.628 55.0843 69.752C54.9601 69.876 54.7738 69.938 54.5875 70C54.4013 70.062 54.215 70.062 53.9666 70.062C53.8424 70.062 53.7803 70.062 53.6561 70.062C53.5319 70.062 53.4698 70 53.3456 70C53.2214 70 53.1593 69.938 53.0972 69.938C53.0351 69.938 52.973 69.876 52.9109 69.876V69.442C52.973 69.504 53.0351 69.504 53.1593 69.566C53.2214 69.566 53.3456 69.628 53.4698 69.628C53.594 69.628 53.6561 69.69 53.7803 69.69C53.9045 69.69 53.9666 69.69 54.0287 69.69C54.1529 69.69 54.2771 69.69 54.4633 69.628C54.5875 69.628 54.7117 69.566 54.7738 69.504C54.898 69.442 54.9601 69.38 55.0222 69.256C55.0843 69.132 55.0843 69.008 55.0843 68.884C55.0843 68.76 55.0843 68.636 55.0222 68.574C54.9601 68.512 54.898 68.45 54.8359 68.388C54.7738 68.326 54.6496 68.326 54.5254 68.2639C54.4013 68.2019 54.2771 68.2019 54.215 68.2019C54.0287 68.1399 53.9045 68.1399 53.7803 68.0779C53.6561 68.0159 53.4698 67.9539 53.4077 67.8919C53.2835 67.8299 53.2214 67.7059 53.0972 67.5819C53.0351 67.4579 52.973 67.2719 52.973 67.0859C52.973 66.8999 53.0351 66.7139 53.0972 66.5279C53.1593 66.4039 53.2835 66.2799 53.4077 66.1559C53.5319 66.0319 53.6561 65.9699 53.8424 65.9699C54.0287 65.9079 54.215 65.9079 54.4013 65.9079C54.5875 65.9079 54.8359 65.9079 55.0222 65.9699C55.2085 66.0319 55.3948 66.0939 55.519 66.1559V66.5899C55.3327 66.5279 55.2085 66.4659 55.0222 66.4039C54.8359 66.3419 54.6496 66.3419 54.4633 66.3419C54.3392 66.3419 54.1529 66.3419 54.0908 66.4039C53.9666 66.4659 53.9045 66.4659 53.7803 66.5279C53.7182 66.5899 53.6561 66.6519 53.594 66.7759C53.5319 66.8379 53.5319 66.9619 53.5319 67.0859L53.3456 67.0239ZM56.7609 69.566H58.8101V70H56.2642V65.9699H58.748V66.4039H56.7609V67.7059H58.4997V68.1399H56.7609V69.566ZM60.0521 68.326V70H59.5553V65.9699H60.611C60.7973 65.9699 60.9214 65.9699 61.0456 65.9699C61.1698 65.9699 61.294 66.0319 61.3561 66.0319C61.6666 66.0939 61.8529 66.2179 61.9771 66.4039C62.1013 66.5899 62.2255 66.8379 62.2255 67.0859C62.2255 67.2719 62.2255 67.3959 62.1634 67.5199C62.1013 67.6439 62.0392 67.7679 61.915 67.8299C61.7908 67.9539 61.7287 68.0159 61.6045 68.0779C61.4803 68.1399 61.3561 68.2019 61.1698 68.2019L62.3497 69.938H61.8529L60.611 68.2639H59.99L60.0521 68.326ZM60.0521 66.4039V67.8919H60.5489C60.6731 67.8919 60.8593 67.8919 60.9214 67.8919C61.0456 67.8919 61.1077 67.8919 61.2319 67.8299C61.4182 67.7679 61.5424 67.7059 61.6045 67.5819C61.6666 67.4579 61.7287 67.3339 61.7287 67.1479C61.7287 66.9619 61.6666 66.8379 61.6045 66.7139C61.5424 66.5899 61.4182 66.5279 61.2319 66.4659C61.1698 66.4659 61.0456 66.4039 60.9835 66.4039C60.8593 66.4039 60.7352 66.4039 60.611 66.4039H60.0521ZM64.461 69.38C64.5852 68.946 64.7715 68.512 64.9578 68.0159L65.7029 65.9079H66.1997L64.6473 69.938H64.2126L62.6602 65.9079H63.1569L63.9021 68.0159C64.0884 68.45 64.2126 68.884 64.3989 69.38H64.461ZM66.7586 70V65.9699H67.2553V70H66.7586ZM70.1118 66.3419C69.8634 66.3419 69.6771 66.4039 69.4908 66.4659C69.3046 66.5279 69.1183 66.6519 68.9941 66.7759C68.8699 66.8999 68.7457 67.0859 68.6215 67.3339C68.5594 67.5199 68.4973 67.7679 68.4973 68.0779C68.4973 68.326 68.5594 68.574 68.6215 68.822C68.6836 69.008 68.8078 69.194 68.932 69.318C69.0562 69.442 69.2425 69.566 69.4287 69.628C69.615 69.69 69.8634 69.752 70.1118 69.752C70.1739 69.752 70.236 69.752 70.2981 69.752C70.3602 69.752 70.4223 69.752 70.5465 69.752C70.6086 69.752 70.6707 69.752 70.7949 69.69C70.857 69.69 70.9191 69.628 70.9812 69.628V70.062C70.857 70.124 70.7328 70.124 70.5465 70.186C70.3602 70.186 70.236 70.248 70.0497 70.248C69.7392 70.248 69.4287 70.186 69.1804 70.124C68.932 70 68.6836 69.876 68.4973 69.69C68.311 69.504 68.1868 69.318 68.1247 69.07C68.0626 68.822 68.0005 68.512 68.0005 68.2019C68.0005 67.8919 68.0626 67.5819 68.1247 67.3339C68.2489 67.0859 68.3731 66.8379 68.5594 66.6519C68.7457 66.4659 68.932 66.3419 69.2425 66.2179C69.4908 66.0939 69.8013 66.0319 70.1118 66.0319C70.1739 66.0319 70.2981 66.0319 70.3602 66.0319C70.4223 66.0319 70.5465 66.0319 70.6086 66.0319C70.6707 66.0319 70.7328 66.0319 70.7949 66.0939C70.857 66.0939 70.9191 66.1559 70.9812 66.1559V66.5899C70.857 66.5279 70.7328 66.5279 70.6086 66.4659C70.4844 66.4659 70.2981 66.4039 70.1739 66.4039L70.1118 66.3419ZM72.161 69.566H74.2102V70H71.6642V65.9699H74.1481V66.4039H72.161V67.7059H73.8997V68.1399H72.161V69.566Z" fill="#1A1A1A"/>
<path d="M75.3901 66.8998C75.3901 67.0238 75.3901 67.0859 75.4522 67.2099C75.5143 67.2719 75.5764 67.3339 75.6385 67.3959C75.7005 67.4579 75.8247 67.4579 75.9489 67.5199C76.0731 67.5819 76.1973 67.5819 76.2594 67.5819C76.4457 67.6439 76.5699 67.6439 76.6941 67.7059C76.8183 67.7679 77.0046 67.8299 77.1288 67.8919C77.253 67.9539 77.3151 68.0779 77.4393 68.2019C77.5014 68.3259 77.5635 68.5119 77.5635 68.6979C77.5635 68.8839 77.5014 69.0699 77.4393 69.2559C77.3772 69.3799 77.253 69.5039 77.1288 69.6279C77.0046 69.7519 76.8183 69.8139 76.632 69.8759C76.4457 69.9379 76.2594 69.9379 76.011 69.9379C75.8868 69.9379 75.8247 69.9379 75.7005 69.9379C75.5764 69.9379 75.5143 69.8759 75.3901 69.8759C75.2659 69.8759 75.2038 69.8139 75.1417 69.8139C75.0796 69.8139 75.0175 69.7519 74.9554 69.7519V69.3179C75.0175 69.3799 75.0796 69.3799 75.2038 69.4419C75.2659 69.4419 75.3901 69.5039 75.5143 69.5039C75.6385 69.5039 75.7005 69.5659 75.8247 69.5659C75.9489 69.5659 76.011 69.5659 76.0731 69.5659C76.1973 69.5659 76.3215 69.5659 76.5078 69.5039C76.632 69.5039 76.7562 69.4419 76.8183 69.3799C76.9425 69.3179 77.0046 69.2559 77.0667 69.1319C77.1288 69.0079 77.1288 68.8839 77.1288 68.7599C77.1288 68.6359 77.1288 68.5119 77.0667 68.4499C77.0046 68.3879 76.9425 68.3259 76.8804 68.2639C76.8183 68.2019 76.6941 68.2019 76.5699 68.1399C76.4457 68.0779 76.3215 68.0779 76.2594 68.0779C76.0731 68.0159 75.9489 68.0159 75.8247 67.9539C75.7005 67.8919 75.5143 67.8299 75.4522 67.7679C75.328 67.7059 75.2659 67.5819 75.1417 67.4579C75.0796 67.3339 75.0175 67.1479 75.0175 66.9618C75.0175 66.7758 75.0796 66.5898 75.1417 66.4038C75.2038 66.2798 75.328 66.1558 75.4522 66.0318C75.5764 65.9078 75.7005 65.8458 75.8868 65.8458C76.0731 65.7838 76.2594 65.7838 76.4457 65.7838C76.632 65.7838 76.8804 65.7838 77.0667 65.8458C77.253 65.9078 77.4393 65.9698 77.5635 66.0318V66.4658C77.3772 66.4038 77.253 66.3418 77.0667 66.2798C76.8804 66.2178 76.6941 66.2178 76.5078 66.2178C76.3836 66.2178 76.1973 66.2178 76.1352 66.2798C76.011 66.3418 75.9489 66.3418 75.8247 66.4038C75.7626 66.4658 75.7005 66.5278 75.6385 66.6518C75.5764 66.7138 75.5764 66.8378 75.5764 66.9618L75.3901 66.8998Z" fill="#1A1A1A"/>
</g>
<defs>
<linearGradient id="paint0_linear_1_15" x1="17.143" y1="13.2064" x2="68.8078" y2="13.2064" gradientUnits="userSpaceOnUse">
<stop stop-color="#00589C"/>
<stop offset="0.129412" stop-color="#007EC9"/>
<stop offset="0.85098" stop-color="#007EC9"/>
<stop offset="1" stop-color="#00589C"/>
</linearGradient>
<linearGradient id="paint1_linear_1_15" x1="70.9812" y1="1.79809" x2="59.5838" y2="25.6824" gradientUnits="userSpaceOnUse">
<stop stop-color="#0062A9"/>
<stop offset="0.219608" stop-color="#2082C3"/>
<stop offset="1" stop-color="#40A2DE"/>
</linearGradient>
<linearGradient id="paint2_linear_1_15" x1="27.3269" y1="23.6847" x2="13.8203" y2="1.15972" gradientUnits="userSpaceOnUse">
<stop stop-color="#1E8CD6"/>
<stop offset="0.788235" stop-color="#8EC5EA"/>
<stop offset="1" stop-color="white"/>
</linearGradient>
<linearGradient id="paint3_linear_1_15" x1="34.3438" y1="30.0088" x2="56.9592" y2="-6.29343" gradientUnits="userSpaceOnUse">
<stop stop-color="#00589C"/>
<stop offset="0.141176" stop-color="#138CD6"/>
<stop offset="0.819608" stop-color="#40A2DE"/>
<stop offset="1" stop-color="white"/>
</linearGradient>
<clipPath id="clip0_1_15">
<rect width="88" height="70" fill="white"/>
</clipPath>
</defs>
</svg>
