<svg width="15" height="14" viewBox="0 0 15 14" fill="none" xmlns="http://www.w3.org/2000/svg">
<path d="M13.8514 7C13.8514 10.7279 10.8293 13.75 7.10139 13.75C3.37347 13.75 0.35139 10.7279 0.35139 7C0.35139 3.27208 3.37347 0.25 7.10139 0.25C10.8293 0.25 13.8514 3.27208 13.8514 7Z" stroke="#333333" stroke-width="0.5"/>
<path d="M9.30558 5.941L9.40458 4.933H9.36858L8.98158 5.806L7.22658 8.596H6.95658L5.11158 5.797L4.74258 4.942H4.69758L4.84158 5.932V10H3.99558V3.7H4.67058L6.80358 6.913L7.13658 7.597H7.15458L7.46958 6.895L9.49458 3.7H10.2056V10H9.30558V5.941Z" fill="#333333"/>
</svg>
