<svg width="1864" height="972" viewBox="0 0 1864 972" fill="none" xmlns="http://www.w3.org/2000/svg">
<path d="M562.802 272.348V190.436L693.3 124.534C717.594 111.582 741.885 112.081 766.176 123.538L852.849 169.86L852.851 169.862C857.142 172.243 862.022 174.801 866.551 177.326C868.662 178.483 870.624 179.612 872.445 180.743C873.314 181.273 874.147 181.797 874.933 182.314L874.805 182.263C885.954 189.742 890.945 197.725 890.945 213.692V303.44L695.972 205.235L562.802 272.348ZM562.802 272.348L562.802 298.555H562.808C562.808 315.626 568.517 323.571 581.354 331.532C580.876 331.341 580.4 331.141 579.921 330.933C585.441 334.422 594.272 338.905 602.554 343.387L681.502 386.223C712.968 402.662 737.812 399.175 763.209 387.718L890.949 323.342V417.421C890.949 429.875 879.354 444.321 865.551 451.293C826.56 471.812 809.346 482.751 770.672 502.433L769.49 503.097C768.418 503.657 767.358 504.191 766.309 504.705C757.069 509.485 747.897 512.17 739.677 513.559C740.974 513.337 742.223 513.061 743.422 512.736C724.724 516.462 708.853 512.106 691.094 504.094L443.711 379.489L201.403 501.602C176.006 513.06 151.163 516.546 119.696 500.108L40.7483 457.271C32.4643 452.789 23.6335 448.307 18.1131 444.817C18.5926 445.026 19.0703 445.226 19.5463 445.417C6.70791 437.456 1 429.511 1 412.439V212.202C1 199.748 7.62266 187.792 21.9774 180.82C53.9069 164.014 74.442 153.315 101.89 139.168L126.321 126.028C131.374 123.798 136.404 121.982 141.417 120.615C145.143 119.482 148.747 118.651 152.265 118.056C150.779 118.316 149.356 118.662 147.992 119.082C165.374 115.723 182.561 118.005 199.747 127.521L253.263 154.471V238.187C253.263 255.259 258.972 263.204 271.809 271.165C271.331 270.973 270.855 270.774 270.376 270.565C275.896 274.055 284.727 278.537 293.009 283.019L371.957 325.855C403.423 342.294 428.267 338.807 453.664 327.35L562.802 272.348ZM973.048 729.348V647.436L1103.55 581.534C1127.84 568.582 1152.13 569.081 1176.42 580.538L1263.09 626.86L1263.1 626.862C1267.39 629.243 1272.27 631.801 1276.8 634.326C1278.91 635.483 1280.87 636.612 1282.69 637.743C1283.56 638.273 1284.39 638.797 1285.18 639.314L1285.05 639.263C1296.2 646.742 1301.19 654.725 1301.19 670.692V760.44L1106.22 662.235L973.048 729.348ZM973.048 729.348L973.048 755.555H973.053C973.053 772.626 978.763 780.571 991.6 788.532C991.122 788.341 990.646 788.141 990.166 787.932C995.687 791.422 1004.52 795.905 1012.8 800.387L1091.75 843.223C1123.21 859.662 1148.06 856.175 1173.45 844.718L1301.19 780.342V874.421C1301.19 886.875 1289.6 901.321 1275.8 908.293C1236.81 928.812 1219.59 939.751 1180.92 959.433L1179.74 960.097C1178.66 960.657 1177.6 961.191 1176.55 961.705C1167.31 966.485 1158.14 969.17 1149.92 970.559C1151.22 970.337 1152.47 970.061 1153.67 969.736C1134.97 973.462 1119.1 969.106 1101.34 961.094L853.957 836.489L611.649 958.602C586.252 970.06 561.408 973.546 529.942 957.108L450.994 914.271C442.71 909.789 433.879 905.307 428.359 901.817C428.838 902.026 429.316 902.226 429.792 902.417C416.954 894.456 411.246 886.511 411.246 869.439V669.202C411.246 656.748 417.868 644.791 432.223 637.82C464.153 621.014 484.688 610.315 512.135 596.168L536.567 583.028C541.62 580.798 546.65 578.981 551.663 577.615C555.389 576.482 558.993 575.651 562.51 575.056C561.024 575.316 559.602 575.662 558.237 576.082C575.62 572.722 592.807 575.005 609.993 584.521L663.508 611.471V695.187C663.508 712.259 669.218 720.204 682.054 728.164C681.577 727.973 681.101 727.774 680.621 727.565C686.142 731.055 694.972 735.537 703.255 740.019L782.203 782.855C813.669 799.294 838.512 795.807 863.909 784.35L973.048 729.348ZM1005.51 265.603L1252.89 390.208C1270.65 398.219 1286.52 402.576 1305.22 398.851C1304.02 399.176 1302.77 399.452 1301.48 399.674C1309.7 398.285 1318.87 395.6 1328.11 390.82C1329.16 390.306 1330.22 389.772 1331.29 389.212L1332.47 388.549C1371.15 368.866 1388.36 357.927 1427.35 337.408C1441.15 330.436 1452.75 315.99 1452.75 303.536V99.8087C1452.75 83.8423 1447.76 75.8591 1436.61 68.3799L1436.74 68.431C1435.95 67.9142 1435.12 67.3894 1434.25 66.8599C1432.43 65.729 1430.47 64.5997 1428.36 63.4433C1423.83 60.9183 1418.95 58.3599 1414.66 55.9784L1327.98 9.65672C1303.69 -1.80049 1279.4 -2.29974 1255.11 10.652L1005.71 136.598L761.553 13.6411C744.367 4.1251 727.18 1.84259 709.798 5.20176C711.162 4.78226 712.585 4.43614 714.071 4.17614C710.553 4.7711 706.949 5.60212 703.223 6.7346C698.21 8.10155 693.18 9.91831 688.127 12.1482L663.696 25.2882C636.248 39.4346 615.713 50.1342 583.783 66.9396C569.429 73.9116 562.806 85.868 562.806 98.3221V298.559C562.806 315.631 568.514 323.576 581.352 331.537C580.876 331.346 580.399 331.145 579.919 330.937C585.439 334.427 594.27 338.909 602.553 343.391L681.501 386.228C712.967 402.666 737.81 399.18 763.207 387.722L1005.52 265.609L1005.51 265.603ZM1143.21 67.158L1005.71 136.595L790.871 28.4032L696.169 76.2274L629.823 42.816C615.904 50.0607 601.62 57.5447 583.778 66.9347C569.423 73.9066 562.801 85.8631 562.801 98.3172V190.436L693.299 124.533C717.59 111.582 741.881 112.079 766.174 123.538L852.848 169.86C857.138 172.241 862.018 174.8 866.548 177.325C868.659 178.481 870.623 179.612 872.441 180.741C873.31 181.272 874.144 181.797 874.929 182.312L874.802 182.261C885.95 189.74 890.942 197.724 890.942 213.69V303.439L910.689 313.385L1005.51 265.599L1074.7 300.453C1087.29 293.471 1100.38 286.212 1117.81 277.037C1131.61 270.065 1143.21 255.619 1143.21 243.165V67.1548L1143.21 67.158ZM1415.76 722.602L1663.14 847.207C1680.9 855.219 1696.77 859.575 1715.47 855.851C1714.27 856.176 1713.02 856.452 1711.72 856.674C1719.94 855.285 1729.12 852.6 1738.35 847.82C1739.4 847.306 1740.46 846.772 1741.54 846.212L1742.72 845.549C1781.39 825.866 1798.61 814.927 1837.6 794.408C1851.4 787.436 1862.99 772.99 1862.99 760.536V556.809C1862.99 540.842 1858 532.859 1846.85 525.38L1846.98 525.431C1846.2 524.914 1845.36 524.389 1844.49 523.86C1842.67 522.729 1840.71 521.6 1838.6 520.443C1834.07 517.918 1829.19 515.36 1824.9 512.978L1738.23 466.657C1713.94 455.199 1689.64 454.7 1665.35 467.652L1415.96 593.598L1171.8 470.641C1154.61 461.125 1137.43 458.843 1120.04 462.202C1121.41 461.782 1122.83 461.436 1124.32 461.176C1120.8 461.771 1117.19 462.602 1113.47 463.735C1108.46 465.102 1103.43 466.918 1098.37 469.148L1073.94 482.288C1046.49 496.435 1025.96 507.134 994.029 523.94C979.674 530.912 973.051 542.868 973.051 555.322V755.559C973.051 772.631 978.759 780.576 991.598 788.537C991.122 788.346 990.644 788.145 990.164 787.937C995.685 791.427 1004.52 795.909 1012.8 800.391L1091.75 843.228C1123.21 859.666 1148.06 856.18 1173.45 844.722L1415.76 722.609L1415.76 722.602ZM1553.45 524.158L1415.95 593.595L1201.12 485.403L1106.41 533.228L1040.07 499.816C1026.15 507.061 1011.87 514.545 994.023 523.935C979.669 530.907 973.046 542.863 973.046 555.317V647.436L1103.54 581.534C1127.84 568.582 1152.13 569.079 1176.42 580.538L1263.09 626.86C1267.38 629.241 1272.26 631.8 1276.79 634.325C1278.9 635.481 1280.87 636.612 1282.69 637.741C1283.56 638.273 1284.39 638.797 1285.17 639.313L1285.05 639.262C1296.2 646.741 1301.19 654.724 1301.19 670.69V760.439L1320.93 770.385L1415.75 722.599L1484.95 757.453C1497.54 750.471 1510.62 743.212 1528.05 734.038C1541.86 727.066 1553.45 712.619 1553.45 700.165V524.155L1553.45 524.158Z" stroke="#DEDEDE" stroke-width="0.755806" stroke-miterlimit="22.9256"/>
</svg>
